<svg width="44" height="44" viewBox="0 0 44 44" fill="none" xmlns="http://www.w3.org/2000/svg">
<path fill-rule="evenodd" clip-rule="evenodd" d="M23.0316 13.7222C24.9223 13.9546 26.6175 14.8207 27.8992 16.1023C29.179 17.3821 30.0469 19.0774 30.2793 20.9699H33.9004C34.469 20.9699 34.932 21.4311 34.932 22.0015C34.932 22.5701 34.4691 23.0331 33.9004 23.0331H30.2793C30.0469 24.9238 29.1808 26.619 27.8992 27.9007C26.6194 29.1805 24.9241 30.0484 23.0316 30.2807V33.9019C23.0316 34.4705 22.5704 34.9335 22 34.9335C21.4314 34.9335 20.9684 34.4706 20.9684 33.9019V30.2807C19.0777 30.0484 17.3825 29.1823 16.1008 27.9007C14.821 26.6209 13.9531 24.9256 13.7207 23.0331H10.0996C9.53097 23.0331 9.06796 22.5719 9.06796 22.0015C9.06796 21.4329 9.53093 20.9699 10.0996 20.9699H13.7207C13.9531 19.0792 14.8192 17.384 16.1008 16.1023C17.3806 14.8225 19.0759 13.9546 20.9684 13.7222V10.1011C20.9684 9.53246 21.4296 9.06945 22 9.06945C22.5686 9.06945 23.0316 9.53242 23.0316 10.1011V13.7222ZM22 4.695C26.7779 4.695 31.1047 6.63321 34.2346 9.76316C37.3663 12.8949 39.3027 17.2203 39.3027 21.9977C39.3027 26.7757 37.3645 31.1025 34.2346 34.2323C31.1028 37.3641 26.7775 39.3005 22 39.3005C17.2225 39.3005 12.8953 37.3623 9.76541 34.2323C6.63366 31.1006 4.69726 26.7752 4.69726 21.9977C4.69726 17.2198 6.63547 12.893 9.76541 9.76316C12.8972 6.63141 17.2225 4.695 22 4.695ZM32.7789 11.2206C30.0204 8.46205 26.2092 6.75624 22 6.75624C17.7908 6.75624 13.9796 8.46209 11.2211 11.2206C8.4625 13.9792 6.7567 17.7904 6.7567 21.9995C6.7567 26.2087 8.46254 30.02 11.2211 32.7785C13.9796 35.5371 17.7908 37.2429 22 37.2429C26.2092 37.2429 30.0204 35.537 32.7789 32.7785C35.5375 30.0199 37.2433 26.2087 37.2433 21.9995C37.2433 17.7904 35.5375 13.9791 32.7789 11.2206ZM22 0C28.0749 0 33.5748 2.46278 37.5569 6.44312C41.5389 10.4234 44 15.9246 44 22C44 28.0754 41.5372 33.5748 37.5569 37.5569C33.5766 41.5389 28.0754 44 22 44C15.9246 44 10.4252 41.5372 6.44312 37.5569C2.46111 33.5766 0 28.0754 0 22C0 15.9246 2.46278 10.4252 6.44312 6.44312C10.4234 2.46111 15.9246 0 22 0ZM26.4397 17.5601C25.3025 16.4246 23.7323 15.7222 22 15.7222C20.266 15.7222 18.6957 16.4246 17.5603 17.5601C16.4248 18.6955 15.7224 20.2676 15.7224 21.9998C15.7224 23.7338 16.4248 25.3023 17.5603 26.4396C18.6957 27.575 20.2677 28.2774 22 28.2774C23.734 28.2774 25.3025 27.575 26.4397 26.4396C27.5752 25.3024 28.2776 23.7321 28.2776 21.9998C28.2776 20.2658 27.5752 18.6956 26.4397 17.5601Z" fill="white" fill-opacity="0.35"/>
</svg>
