<svg width="61" height="45" viewBox="0 0 61 45" fill="none" xmlns="http://www.w3.org/2000/svg">
<path d="M51.3037 16.4375L46.97 19.2428C46.6147 19.4727 46.284 19.4727 45.9287 19.2428L42.1418 16.7909C42.175 17.1399 42.197 17.492 42.197 17.8496V18.4662C42.197 22.0261 40.414 25.0675 37.7949 27.1526C40.1465 27.7446 42.2325 28.4513 43.9974 29.5144C44.9445 29.569 45.7979 29.5987 46.4493 29.5987C49.3996 29.5987 56.0826 29.0849 60.1443 27.6384C60.7351 27.428 61.2119 26.9828 60.9049 25.4599C59.7862 19.8158 57.0267 17.8094 51.3037 16.4375Z" fill="white" fill-opacity="0.35"/>
<path d="M9.69716 16.4375C3.97422 17.8094 1.2147 19.8158 0.0959984 25.4599C-0.211034 26.9828 0.265743 27.428 0.856584 27.6384C4.9183 29.0849 11.6013 29.5987 14.5515 29.5987C15.2033 29.5987 16.0572 29.5691 17.0049 29.5144C18.7708 28.4513 20.8574 27.7448 23.2103 27.1526C20.5909 25.0677 18.8039 22.0268 18.8039 18.4662V17.8496C18.8039 17.4919 18.8259 17.14 18.8591 16.7909L15.0722 19.2428C14.7169 19.4727 14.3862 19.4727 14.0309 19.2428L9.69716 16.4375Z" fill="white" fill-opacity="0.35"/>
<path d="M36.3204 29.0391C43.1812 30.6022 46.4885 32.8891 47.8296 39.3203C48.1977 41.0557 47.6273 41.5623 46.919 41.8021C42.0498 43.4504 34.0375 44.0358 30.5008 44.0358C26.9639 44.0358 18.9516 43.4504 14.0824 41.8021C13.3741 41.5623 12.8038 41.0557 13.1719 39.3203C14.513 32.8893 17.8206 30.6024 24.6811 29.0391L29.877 32.235C30.3029 32.497 30.6986 32.497 31.1244 32.235L36.3204 29.0391Z" fill="white" fill-opacity="0.35"/>
<path fill-rule="evenodd" clip-rule="evenodd" d="M30.501 8.69141C25.2594 8.69141 21.0352 12.7762 21.0352 17.8508V18.4701C21.0352 23.5409 25.2594 27.623 30.501 27.623C35.7458 27.623 39.9667 23.5404 39.9667 18.4701V17.8508C39.9667 12.7762 35.7458 8.69141 30.501 8.69141Z" fill="white" fill-opacity="0.35"/>
<path fill-rule="evenodd" clip-rule="evenodd" d="M46.4487 0C42.3728 0 39.0879 3.1764 39.0879 7.12249V7.60409C39.0879 11.5472 42.3728 14.7215 46.4487 14.7215C50.5272 14.7215 53.8094 11.5468 53.8094 7.60409V7.12249C53.8094 3.1764 50.5272 0 46.4487 0Z" fill="white" fill-opacity="0.35"/>
<path fill-rule="evenodd" clip-rule="evenodd" d="M14.5522 0C18.6281 0 21.913 3.1764 21.913 7.12249V7.60409C21.913 11.5472 18.6281 14.7215 14.5522 14.7215C10.4737 14.7215 7.19141 11.5468 7.19141 7.60409V7.12249C7.19141 3.1764 10.4737 0 14.5522 0Z" fill="white" fill-opacity="0.35"/>
</svg>
