<svg width="64" height="46" viewBox="0 0 64 46" fill="none" xmlns="http://www.w3.org/2000/svg">
<path d="M15.9071 13.6536C-5.30237 14.4705 -5.30237 45.1837 15.9071 46C21.6407 46 26.9375 42.9164 29.8027 37.9134C32.671 32.9103 32.671 26.7432 29.8027 21.7402C26.9374 16.7371 21.6405 13.6536 15.9071 13.6536ZM15.9766 27.493C18.7261 27.5776 21.0532 29.5613 21.5944 32.2803C22.1356 34.9992 20.7493 37.7327 18.2457 38.882C18.3817 39.5384 18.2341 40.224 17.8405 40.7666C17.444 41.3063 16.839 41.6534 16.1763 41.7147C15.5135 41.7788 14.8535 41.5542 14.3644 41.0991C13.8753 40.6411 13.6033 39.9963 13.6148 39.3254H12.3877C11.12 39.3079 10.1012 38.2693 10.1012 36.9916C10.1012 35.7138 11.12 34.6752 12.3877 34.6578H15.9303C16.6104 34.6403 17.1488 34.0714 17.1372 33.3858C17.1227 32.7003 16.5641 32.1519 15.884 32.1606C13.1402 32.0848 10.8131 30.1127 10.269 27.3996C9.72779 24.6895 11.1141 21.9588 13.6148 20.8182C13.4643 20.1589 13.6033 19.4675 13.994 18.9161C14.3847 18.3677 14.9897 18.0118 15.6553 17.9418C16.3239 17.8688 16.9896 18.0905 17.4846 18.5456C17.9795 19.0036 18.2574 19.6513 18.2457 20.3281H19.4729C20.7406 20.3456 21.7594 21.3842 21.7594 22.6619C21.7594 23.9396 20.7406 24.9782 19.4729 24.9957H15.9303C15.2501 25.0132 14.7118 25.5821 14.7234 26.2676C14.7378 26.9532 15.2964 27.5017 15.9766 27.493ZM47.9764 13.6536C42.5843 13.6157 37.5424 16.3404 34.5935 20.8884C37.2244 26.5538 37.2244 33.1005 34.5935 38.7659C42.8365 51.7069 63.9185 46.1466 64 29.8272C63.9942 25.5417 62.3068 21.4344 59.3026 18.403C56.3012 15.372 52.226 13.6653 47.9773 13.6537L47.9764 13.6536ZM53.8576 29.0098L48.972 33.9342C48.5378 34.3776 47.9445 34.6285 47.328 34.6285C46.7114 34.6285 46.1182 34.3776 45.684 33.9342L42.095 30.3167C41.2238 29.4036 41.2354 27.9537 42.1268 27.0581C43.0154 26.1596 44.4538 26.1479 45.3598 27.026L47.3279 28.9864L50.5926 25.7191C51.4986 24.838 52.9399 24.8497 53.8285 25.7482C54.7199 26.6438 54.7317 28.0966 53.8576 29.0098ZM44.318 2.33399V5.8814C44.3035 6.84996 43.6986 7.71343 42.7956 8.04891C41.8925 8.38438 40.8796 8.12475 40.2428 7.39836L34.7552 12.9295C33.8464 13.8397 32.3761 13.8397 31.4673 12.9295L28.0404 9.47542L25.9334 11.6225C24.4572 10.7911 22.8856 10.1435 21.2562 9.68543L26.3964 4.50434C27.3111 3.60293 28.7698 3.60293 29.6844 4.50434L33.1112 7.9817L36.9549 4.10755C36.2342 3.46575 35.9795 2.44468 36.3123 1.53452C36.6452 0.624295 37.499 0.0145888 38.4599 2.57486e-05H42.0025C42.6161 -0.00289134 43.2065 0.242161 43.6435 0.679754C44.0777 1.12026 44.3209 1.71555 44.318 2.33399Z" fill="white" fill-opacity="0.35"/>
</svg>
