<svg width="45" height="45" viewBox="0 0 45 45" fill="none" xmlns="http://www.w3.org/2000/svg">
<path d="M39.8047 8.16418L41.434 8.28591C41.949 8.34209 42.3984 7.93945 42.4359 7.42445C42.4733 6.90946 42.0894 6.46 41.5744 6.42255L37.7166 6.13228C37.4732 6.10419 37.2297 6.18846 37.0424 6.357C36.8552 6.51618 36.7428 6.75027 36.7241 6.99373L36.4338 10.8515C36.3963 11.3665 36.7802 11.816 37.2952 11.8534C37.3233 11.8534 37.3421 11.8534 37.3702 11.8534C37.8571 11.8534 38.2597 11.4789 38.2971 10.992L38.4189 9.39081C41.4621 13.0707 43.1381 17.7244 43.1381 22.5092C43.1381 33.886 33.8869 43.1372 22.5101 43.1372C11.1333 43.1372 1.86336 33.886 1.86336 22.5092C1.86336 17.8087 3.48326 13.2112 6.44216 9.54999C6.67625 9.25972 6.9197 8.97881 7.17252 8.6979C7.51898 8.314 7.48152 7.72409 7.09761 7.37764C6.71371 7.03118 6.1238 7.06864 5.77735 7.45254C5.5058 7.75218 5.24362 8.06118 4.9908 8.37018C4.9908 8.37018 4.9908 8.37018 4.9908 8.37954C1.76972 12.3591 0 17.378 0 22.5092C0 34.916 10.094 45.0006 22.4914 45.0006C34.8982 45.0006 44.9828 34.9066 44.9828 22.5092C44.9828 17.275 43.1381 12.1905 39.8047 8.16418Z" fill="white" fill-opacity="0.35"/>
<path d="M6.61133 22.5076C6.61133 31.2626 13.737 38.3883 22.4826 38.3883C31.2376 38.3883 38.3633 31.2626 38.3633 22.5076C38.3633 13.7527 31.2376 6.62695 22.4826 6.62695C13.737 6.62695 6.61133 13.7527 6.61133 22.5076ZM25.1045 22.5076C25.1045 23.9496 23.934 25.1201 22.492 25.1201C21.3684 25.1201 20.432 24.3991 20.0575 23.4065C20.0013 23.4159 19.9451 23.444 19.8796 23.444H13.6528C13.1378 23.444 12.7258 23.0226 12.7258 22.5076C12.7258 21.9926 13.1471 21.5713 13.6528 21.5713H19.8796C19.9451 21.5713 20.0013 21.5994 20.0575 21.6087C20.3196 20.8971 20.8815 20.3353 21.5931 20.0731C21.5837 20.0075 21.5556 19.9514 21.5556 19.8952V15.4943C21.5556 14.9793 21.977 14.5579 22.492 14.5579C23.007 14.5579 23.4284 14.9793 23.4284 15.4943V19.8952C23.4284 19.9607 23.4003 20.0169 23.3909 20.0731C24.3835 20.4476 25.1045 21.384 25.1045 22.5076Z" fill="white" fill-opacity="0.35"/>
<path d="M21.3206 1.90862C21.3393 1.90862 21.358 1.90862 21.3674 1.90862C21.742 1.8899 22.1071 1.88053 22.4817 1.88053C22.9967 1.88053 23.418 1.45917 23.418 0.944173C23.418 0.429175 22.9967 0.0078125 22.4817 0.0078125C22.0697 0.0078125 21.667 0.0171762 21.2644 0.045267C20.7494 0.0733578 20.3561 0.513447 20.3842 1.02845C20.4217 1.52472 20.8337 1.90862 21.3206 1.90862Z" fill="white" fill-opacity="0.35"/>
<path d="M16.5638 2.70441C16.6481 2.70441 16.7323 2.69504 16.8166 2.66695C17.547 2.46095 18.2961 2.29241 19.0639 2.16132C19.5695 2.07705 19.916 1.5995 19.8317 1.09387C19.7474 0.588233 19.2605 0.223053 18.7642 0.326052C17.9309 0.466506 17.1069 0.653778 16.311 0.878505C15.8147 1.01896 15.5244 1.53396 15.6743 2.03023C15.7866 2.43286 16.1612 2.70441 16.5638 2.70441Z" fill="white" fill-opacity="0.35"/>
<path d="M12.1161 4.54111C12.2659 4.54111 12.4251 4.50366 12.5656 4.42875C13.2397 4.05421 13.9326 3.72648 14.6443 3.42685C15.1218 3.23021 15.3465 2.68712 15.1499 2.20958C14.9533 1.73203 14.4008 1.50731 13.9326 1.70394C13.1555 2.0223 12.397 2.38749 11.6667 2.79012C11.2172 3.04294 11.0487 3.60475 11.3015 4.05421C11.47 4.36321 11.7884 4.54111 12.1161 4.54111Z" fill="white" fill-opacity="0.35"/>
<path d="M8.18486 7.31194C8.40023 7.31194 8.62495 7.23703 8.80286 7.07785C9.37404 6.56285 9.98268 6.0853 10.61 5.64521C11.0314 5.34558 11.125 4.76504 10.8348 4.34367C10.5351 3.92231 9.95458 3.82867 9.53322 4.11895C8.84968 4.60585 8.19423 5.13022 7.56686 5.68267C7.18296 6.02912 7.1455 6.60967 7.49196 7.00294C7.66986 7.19957 7.93204 7.31194 8.18486 7.31194Z" fill="white" fill-opacity="0.35"/>
</svg>
