<svg width="47" height="44" viewBox="0 0 47 44" fill="none" xmlns="http://www.w3.org/2000/svg">
<path fill-rule="evenodd" clip-rule="evenodd" d="M5.56707 28.373C5.25582 28.373 5.00306 28.1193 5.00306 27.8069C5.00306 27.4946 5.25582 27.2409 5.56707 27.2409H18.2716C18.5829 27.2409 18.8356 27.4946 18.8356 27.8069C18.8356 28.1193 18.5829 28.373 18.2716 28.373H5.56707ZM5.56707 24.6916C5.25582 24.6916 5.00306 24.4379 5.00306 24.1255C5.00306 23.8132 5.25582 23.5595 5.56707 23.5595H18.2716C18.5829 23.5595 18.8356 23.8132 18.8356 24.1255C18.8356 24.4379 18.5829 24.6916 18.2716 24.6916H5.56707ZM5.56707 21.0102C5.25582 21.0102 5.00306 20.7565 5.00306 20.4442C5.00306 20.1318 5.25582 19.8781 5.56707 19.8781H18.2716C18.5829 19.8781 18.8356 20.1318 18.8356 20.4442C18.8356 20.7565 18.5829 21.0102 18.2716 21.0102H5.56707ZM23.4919 34.208C23.1801 34.208 22.9279 33.9543 22.9279 33.6419C22.9279 33.3295 23.1807 33.0759 23.4919 33.0759C23.8032 33.0759 24.0559 33.3295 24.0559 33.6419C24.0559 33.9543 23.8032 34.208 23.4919 34.208ZM10.8981 44H36.1024C35.8293 42.3475 34.3884 41.0948 32.6901 41.0948H14.3104C12.6121 41.0948 11.1712 42.3475 10.8981 44ZM17.3034 39.9627H29.6972L27.6119 36.361H19.3887L17.3034 39.9627ZM44.9147 30.1738V3.97332C44.9147 2.93819 44.0728 2.09332 43.0414 2.09332H3.9591C2.92768 2.09332 2.08582 2.93819 2.08582 3.97332V30.1744C2.08582 31.2095 2.92768 32.0544 3.9591 32.0544H43.0414C44.0728 32.0544 44.9147 31.209 44.9147 30.1738ZM43.5673 30.7016C43.7026 30.5659 43.7867 30.3788 43.7867 30.1738V3.97332C43.7867 3.56294 43.4498 3.22541 43.0414 3.22541H3.9591C3.55018 3.22541 3.21386 3.56294 3.21386 3.97332V30.1744C3.21386 30.5847 3.55018 30.9223 3.9591 30.9223H43.0414C43.2456 30.9223 43.4321 30.8374 43.5673 30.7016ZM46.5796 34.807C46.8391 34.5465 47 34.188 47 33.7939V1.43503C47 0.646758 46.3556 0 45.5701 0H1.42989C0.644444 0 0 0.646758 0 1.43503V33.7944C0 34.5827 0.644444 35.2295 1.42989 35.2295H45.5706C45.9634 35.2295 46.3206 35.068 46.5801 34.8075L46.5796 34.807ZM34.5639 13.247L37.6002 9.62276C36.6127 8.20136 37.6268 6.23278 39.3649 6.23278C41.2736 6.23278 42.2361 8.55985 40.8851 9.91574C40.2506 10.5525 39.2813 10.7313 38.4598 10.3476L35.4956 13.8859C36.6821 15.2806 35.6914 17.4436 33.8599 17.4436C32.323 17.4436 31.2895 15.8702 31.8738 14.4588L30.0236 13.0222C29.3525 13.8508 28.1754 14.0657 27.2578 13.518L24.6236 17.0196C25.5965 18.442 24.5808 20.3965 22.8501 20.3965C20.9418 20.3965 19.9788 18.0694 21.3298 16.7135C21.9675 16.0736 22.9415 15.8969 23.7645 16.2858L26.4666 12.6941C25.6911 11.268 26.7188 9.50483 28.355 9.50483C29.6559 9.50483 30.6596 10.6563 30.4852 11.9535L32.5622 13.5662C33.1293 13.1343 33.8808 13.0096 34.5639 13.247ZM40.0876 7.66519C40.4866 8.06561 40.4866 8.71499 40.0876 9.11541C39.4458 9.75955 38.3434 9.30147 38.3434 8.39004C38.3434 7.4786 39.4458 7.02157 40.0876 7.66519ZM34.5822 14.561C34.9812 14.9614 34.9812 15.6108 34.5822 16.0112C33.9404 16.6553 32.8379 16.1973 32.8379 15.2858C32.8379 14.3744 33.9404 13.9174 34.5822 14.561ZM29.0767 10.9372C29.4757 11.3377 29.4757 11.987 29.0767 12.3875C28.4349 13.0316 27.3325 12.5735 27.3325 11.6621C27.3325 10.7507 28.4349 10.2936 29.0767 10.9372ZM23.5713 17.5138C23.9703 17.9143 23.9703 18.5636 23.5713 18.9641C22.9295 19.6082 21.827 19.1501 21.827 18.2387C21.827 17.3273 22.9295 16.8702 23.5713 17.5138ZM37.7041 13.572H41.0245C41.3358 13.572 41.5886 13.8256 41.5886 14.138V28.1513C41.5886 28.4637 41.3358 28.7173 41.0245 28.7173H37.7041C37.3929 28.7173 37.1401 28.4637 37.1401 28.1513V14.138C37.1401 13.8256 37.3929 13.572 37.7041 13.572ZM40.4605 14.7041V27.5852H38.2682V14.7041H40.4605ZM32.1987 19.1234H35.5191C35.8303 19.1234 36.0831 19.3771 36.0831 19.6894V28.1513C36.0831 28.4637 35.8303 28.7173 35.5191 28.7173H32.1987C31.8874 28.7173 31.6347 28.4637 31.6347 28.1513V19.6894C31.6347 19.3771 31.8874 19.1234 32.1987 19.1234ZM34.9551 20.2555V27.5852H32.7627V20.2555H34.9551ZM26.6932 16.3325H30.0136C30.3249 16.3325 30.5777 16.5861 30.5777 16.8985V28.1513C30.5777 28.4637 30.3249 28.7173 30.0136 28.7173H26.6932C26.382 28.7173 26.1292 28.4637 26.1292 28.1513V16.8985C26.1292 16.5861 26.382 16.3325 26.6932 16.3325ZM29.4496 17.4646V27.5852H27.2573V17.4646H29.4496ZM21.1878 21.2838H24.5082C24.8194 21.2838 25.0722 21.5375 25.0722 21.8498V28.1518C25.0722 28.4642 24.8194 28.7178 24.5082 28.7178H21.1878C20.8765 28.7178 20.6238 28.4642 20.6238 28.1518V21.8498C20.6238 21.5375 20.8765 21.2838 21.1878 21.2838ZM23.9442 22.4159V27.5858H21.7518V22.4159H23.9442ZM11.6412 5.85384C14.1746 6.08445 16.2176 8.02997 16.5748 10.5573H16.7007C17.0109 10.5573 17.2626 10.8094 17.2626 11.1207C17.2689 14.5463 14.5235 17.3147 11.119 17.3272C7.71609 17.3398 4.94718 14.5814 4.93464 11.1616C4.92211 7.74328 7.6811 4.96128 11.0783 4.95499C11.3885 4.95499 11.6402 5.20761 11.6402 5.51893L11.6412 5.85384ZM16.086 11.6867H16.1095C15.8369 14.2287 13.6963 16.1899 11.119 16.1994C8.33442 16.2093 6.06842 13.9519 6.0585 11.1616C6.0491 8.56981 7.98922 6.40626 10.5184 6.1159L10.5367 11.1411C10.5367 11.4524 10.7884 11.7051 11.0986 11.7051L16.086 11.6867ZM15.4369 10.5614L11.6585 10.5751L11.6454 6.98803C13.5495 7.20921 15.099 8.65681 15.4369 10.5614Z" fill="white" fill-opacity="0.35"/>
</svg>
