<svg width="90" height="64" viewBox="0 0 90 64" fill="none" xmlns="http://www.w3.org/2000/svg">
<path d="M74.8335 51.0674C75.1435 51.7374 73.8435 52.1174 73.3635 51.8074C72.6735 51.3674 72.1435 50.9074 71.5635 50.5774C71.1935 51.4274 71.6435 52.3374 71.1535 53.1074C70.9135 53.4874 69.5535 53.4174 69.4835 53.0374L69.0835 50.7774C67.7035 51.5474 67.4235 52.4374 66.2235 51.8774C65.9135 51.7274 65.6135 51.1974 65.9735 50.8474L69.0335 47.8274C69.6635 47.2074 69.2235 45.8474 69.1335 45.0374C68.1635 45.6874 64.9935 48.8874 64.2335 47.8474C64.0335 47.5774 64.1035 47.0774 64.4135 46.7974L69.3635 42.3974L69.2035 33.4174C67.8835 34.2374 61.7635 37.5374 61.5035 38.5174C60.9235 40.6874 61.2235 44.5174 60.2135 44.8474C57.9335 45.5774 59.6635 40.7474 59.2435 39.0274C58.5635 39.5474 57.4235 39.8974 57.0035 40.6974C56.3935 41.8974 56.9235 44.9874 55.4835 45.1374C53.9635 45.2974 54.8035 42.7674 54.6435 41.6974C53.9335 41.7274 52.0735 43.6174 51.4035 42.1474C50.9635 41.1774 52.6735 40.7274 53.2535 39.8774C52.6835 39.0674 50.5035 38.3974 51.1035 37.1374C51.8035 35.6674 54.0335 38.1174 55.5835 38.3574C56.4035 38.4774 57.1835 37.6774 57.8435 37.1974L54.1835 34.9774C53.7235 34.6974 53.4635 34.2674 53.6835 33.8474C54.4635 32.3574 58.8735 35.5274 60.3835 36.0674C63.0835 34.7274 65.4635 33.3574 68.0235 31.5774C66.6735 30.7974 61.1835 27.0374 59.9235 27.5974C58.7435 28.1174 53.9635 30.5774 53.6535 29.0374C53.3635 27.5774 56.8035 27.1174 58.1035 25.7774C57.6035 25.2774 56.7135 24.7574 57.1035 24.1174C57.5135 23.4374 58.5035 23.8374 59.2235 23.8974L59.6635 19.9874C59.7135 19.5574 59.9835 19.2774 60.3135 19.2874C60.6835 19.2874 60.8835 19.6374 60.9235 20.0474L61.4035 25.0874L69.1235 29.5374C69.5435 26.6274 69.2235 23.7974 69.2935 20.8274L64.4535 16.8874C63.9735 16.4974 63.6435 16.1674 63.9035 15.6174C64.8535 13.6074 67.8135 17.7474 69.1735 18.1174C69.1935 17.3474 69.5835 16.1674 69.1035 15.5474C68.2035 14.4074 65.2435 12.5774 65.9435 11.4174C66.1335 11.0974 66.5935 10.9674 67.0035 11.2674L69.0735 12.7974L69.4335 10.1174C69.4935 9.67743 70.8935 9.69743 71.1235 10.0674C71.6435 10.8874 71.1335 11.9974 71.4435 13.0374C72.3135 12.7174 72.6935 11.9574 73.4135 11.3674C73.8335 11.0174 75.1935 11.2474 75.2135 11.7374C73.9735 15.1174 70.2835 14.1774 71.5535 18.2674C73.5235 17.6174 75.6735 14.5474 76.6235 15.7074C77.5035 16.7774 72.2435 19.9574 71.4035 20.8874L71.4435 29.6474C74.3835 28.5174 76.8835 26.8374 79.4535 25.0474C79.8435 23.5274 79.4135 18.9274 80.3235 18.5074C80.7135 18.3274 81.5635 18.1674 81.5635 18.6774L81.6335 23.9574C86.2935 22.8574 82.7935 17.4374 85.6535 18.1974C86.7435 18.4874 85.9335 20.2974 86.2035 21.3974C87.3935 21.2274 88.1535 19.7374 89.1735 20.7474C90.1935 21.7574 87.8735 22.8574 87.3835 23.4674L89.7035 24.8974C90.1335 25.1674 89.7935 25.8474 89.4935 26.1374C89.2435 26.3774 88.8535 26.5974 88.3835 26.4074L84.9535 25.0074C84.1635 24.6874 83.3635 25.7974 82.7035 26.0674C84.0635 27.1374 87.6635 27.5574 87.2035 29.0974C87.0435 29.6374 86.3735 29.9774 85.7335 29.7074L80.1235 27.3674L72.4735 31.6174C75.2935 33.0174 77.5735 34.4574 80.0635 35.9674C81.5935 35.5374 86.6135 32.4474 87.3135 34.0274C87.4935 34.4174 87.2935 34.9174 86.8435 35.1574L82.8635 37.3074C85.4135 40.5174 88.7035 35.1374 89.7735 37.3874C90.3435 38.5874 88.0435 39.1774 87.3335 39.9974C87.8635 40.6174 88.6835 40.7474 89.2635 41.3274C89.6035 41.6674 89.4435 42.1874 89.1535 42.4474C88.1335 43.3674 87.2335 42.0374 86.1635 41.9474C85.9335 42.9674 86.7835 45.0174 85.4035 45.0274C84.9135 45.0274 84.4435 44.7974 84.3335 44.1074L83.7935 40.4574L81.4935 39.2474C81.1535 40.5874 82.4735 45.7174 80.3635 44.8774C79.4035 44.4974 79.4935 39.5374 79.2635 38.0274C76.8235 36.3874 74.4435 34.8774 71.4535 33.6174L71.3735 42.2474L76.2835 46.7174C76.6335 47.0374 76.7035 47.5174 76.5435 47.7474C75.6035 49.0974 73.0535 45.7674 71.4235 45.0674C70.4835 48.5874 73.5235 48.2474 74.8035 51.0374L74.8335 51.0674Z" fill="white"/>
<path d="M43.1032 63.2574C40.2132 64.0674 37.5132 62.7674 36.4232 60.0474C35.4232 57.5674 35.6732 54.8874 36.7032 52.4174L39.3332 47.1374C40.5532 45.1274 41.1632 43.1174 41.9032 40.6274C43.5932 46.3074 46.2232 49.3474 47.9732 54.5074C49.0332 58.3874 47.0532 62.1474 43.1032 63.2574Z" fill="white"/>
<path d="M22.1336 49.6175L16.4636 56.0875C14.4736 58.3575 11.3836 59.5975 8.29361 59.3975C6.55361 59.2875 4.88361 58.5675 3.36361 57.5975C-0.55639 55.0775 -1.41639 48.1775 2.75361 43.8275C5.25361 41.2175 7.99361 39.1175 10.6936 36.6875L22.4736 26.0975C25.5936 23.2875 28.8036 20.8375 31.7436 17.9075C30.0736 9.53747 33.3836 3.27747 41.3936 0.637474C46.9436 -1.19253 54.1336 1.32747 52.2936 3.04747L45.4436 9.44748C44.2136 10.5975 43.8236 12.2575 45.1736 13.5475C45.9336 14.2675 47.1536 15.1775 48.3136 15.0475C49.8336 14.8775 56.3136 6.84748 57.5636 7.15747C59.1136 7.53748 61.9636 16.7975 56.0236 23.4175C52.2536 27.6175 46.5436 29.4875 40.8436 27.6475L22.1336 49.6275V49.6175ZM26.1136 41.9075L40.1736 25.2875C44.8936 26.9675 49.8936 26.0475 53.4636 22.8175C57.0336 19.5875 58.2936 14.7375 56.9836 10.0775L49.8336 16.7975C48.7236 17.8375 46.8936 16.9475 45.6236 16.2475C43.2536 15.1875 41.1936 11.8275 42.7636 9.41748C44.4536 6.83748 47.2336 5.27748 49.3836 2.78748C43.1336 0.637476 36.0836 3.93747 33.9136 10.2775C32.9836 12.9875 33.2636 15.6875 34.2536 18.4575L14.9536 35.4575L4.78362 44.3975C1.65362 47.1475 1.02361 52.4475 4.20361 55.3675C7.62361 58.5075 13.0936 57.5275 15.9836 54.0675L26.1236 41.8975L26.1136 41.9075Z" fill="white"/>
<path d="M15.7432 49.6075C15.7432 52.7675 13.1832 55.3175 10.0332 55.3175C6.88324 55.3175 4.32324 52.7575 4.32324 49.6075C4.32324 46.4575 6.88324 43.8975 10.0332 43.8975C13.1832 43.8975 15.7432 46.4575 15.7432 49.6075ZM10.4232 53.2075C12.3632 52.8975 13.5132 51.5875 13.6832 50.0075C13.8632 48.2975 12.9132 46.6975 11.4332 46.1475C9.95324 45.5975 8.28324 46.1975 7.19324 47.4275C6.10324 48.6575 5.90324 50.1575 6.64324 51.5575C7.32324 52.8475 8.63323 53.5075 10.4332 53.2175L10.4232 53.2075Z" fill="white"/>
</svg>
