<svg width="75" height="61" viewBox="0 0 75 61" fill="none" xmlns="http://www.w3.org/2000/svg">
<path d="M74.1177 25.7763C73.7877 26.7763 74.1577 27.8363 74.0977 28.8363C74.0477 29.6463 73.3377 30.4863 73.6477 31.4763C74.0177 32.6563 74.7777 33.9663 74.7277 35.1863C74.6177 37.8763 72.7177 39.8663 70.1877 40.6563C68.4077 41.2063 66.5177 41.1263 64.5277 41.1663C62.2877 45.4863 59.2577 45.8663 54.9577 46.5763L56.9277 50.9263C57.4377 52.0563 57.8577 53.3863 57.8277 54.5563C57.7977 55.8063 56.5577 56.7163 55.5977 57.3963C53.8377 58.6563 52.5277 60.0963 50.4677 60.8263L47.1777 56.0363C44.7077 52.4363 42.3777 48.5763 39.1577 45.3563C38.4977 44.6963 37.7977 45.8663 37.3377 46.0663C31.1077 48.8863 24.9477 51.4063 19.0677 45.3863C16.0177 45.9963 12.5877 46.1163 10.2377 44.1163L8.29768 42.4763L6.62768 38.8663C4.06768 38.1463 1.97768 36.5763 0.78768 34.0663C-0.31232 31.7363 0.0676821 28.7663 0.0476821 26.2163C0.0376821 23.9963 2.25768 23.1763 2.78768 21.7763C3.52768 19.8363 0.857678 14.1963 9.99768 11.2563C12.3177 5.6063 16.1077 5.66632 21.4277 2.70632C25.3477 0.526317 30.8377 -1.6437 33.6577 3.3763C35.4877 6.6263 37.6377 7.71631 36.2177 8.57631C35.9777 8.72631 35.5077 8.9763 35.1377 8.5963C32.2177 5.5763 31.2977 1.30631 27.2677 2.51631C24.7677 3.26631 22.3877 4.30631 20.1677 5.76631L25.4577 14.0363C25.7677 14.5163 25.3777 15.0263 25.0077 15.1163C24.6377 15.2063 24.2377 15.0763 23.9377 14.6563L18.2477 6.57631C14.7977 7.56631 11.8677 9.57632 11.4977 13.2763C9.23768 13.3163 7.23768 14.1163 6.05768 15.6963C4.87768 17.2763 4.45768 19.5363 5.31768 21.3063C7.16768 20.9363 8.82768 20.1363 10.5777 20.6363C12.5177 21.1963 13.2777 25.6463 14.5677 27.2663C16.2577 26.3063 20.0477 24.6663 20.3277 27.1963C20.3477 27.4163 20.1577 27.7963 19.6877 27.7663C17.1577 27.5963 14.9077 29.2363 14.9077 31.8463C14.9077 32.8063 15.3077 33.6963 15.8477 34.1363C17.6077 35.5863 20.0777 33.8063 20.1677 35.2063C20.2177 35.9763 19.2777 36.5963 18.5477 36.7363C16.7677 37.0863 15.0277 36.1163 14.0277 34.9663C12.7977 33.5563 12.5777 31.5863 13.1777 29.8763C13.5277 28.8963 13.0977 28.5563 12.7077 27.7263L10.1577 22.2163L5.65768 23.1963C3.46768 23.6763 1.89768 25.0563 1.88768 27.3563C1.88768 29.1963 1.88768 31.0063 2.41768 32.7663C3.30768 35.6963 5.93768 37.2463 9.14768 36.6663C8.46768 40.0063 10.1677 42.5963 13.2077 43.3563C15.4877 43.9263 17.6877 43.8163 20.1577 43.1063C21.4477 45.5763 23.8477 46.8863 26.7277 46.9763C33.9877 47.2063 38.3277 41.7663 40.0877 43.5863C44.3877 48.0463 47.8477 53.0063 51.0777 58.4363C52.8277 57.2863 54.3777 56.2163 55.6477 54.7663C56.0877 54.2663 55.6777 53.2363 55.4577 52.7263L51.8877 44.5263C56.4877 44.1063 61.7677 44.8763 62.5177 39.0863C65.6877 39.1063 70.3577 39.5563 72.0177 36.6663C73.0677 34.8363 71.7177 32.9763 71.6877 31.1763C71.6377 28.2063 72.4477 25.1163 71.1377 22.2063C69.5877 18.7563 66.2477 17.0263 62.4477 16.3463C63.3477 14.7563 63.4477 13.5363 62.7677 12.1963C61.6477 10.0263 57.5677 7.72631 55.0477 9.16631C55.0977 6.92631 54.1477 5.11633 52.1977 4.15633C49.5577 2.86633 46.6577 1.99631 43.6577 2.01631C41.3777 2.02631 39.3477 3.28631 37.3177 4.01631C35.5777 2.70631 39.9077 0.806309 40.4177 0.636309C46.0177 -1.21369 54.5777 1.01631 56.9077 6.72631C61.5877 6.71631 65.2677 10.3263 65.3377 14.9463C70.5077 16.3463 73.3877 20.8063 74.1077 25.7663L74.1177 25.7763Z" fill="white"/>
<path d="M37.6074 30.7463L31.1974 30.6963L29.6474 34.7863L25.3174 34.5563C26.9574 28.4163 28.6574 22.5163 30.6774 16.4863C30.9174 15.7563 30.9874 14.2963 31.8174 14.0863C33.6174 13.6263 35.5074 13.9863 37.3974 13.9063L43.7774 34.7363L39.0074 34.7763L37.6174 30.7563L37.6074 30.7463ZM36.7374 26.6563L34.4774 18.2963L32.0274 26.7263C33.6774 26.8863 35.0974 27.0063 36.7274 26.6563H36.7374Z" fill="white"/>
<path d="M46.3405 14.2466L46.3262 34.7766L51.0862 34.7799L51.1005 14.2499L46.3405 14.2466Z" fill="white"/>
<path d="M52.6977 40.2664C51.5177 40.2864 48.1377 40.5964 48.1377 38.9564C48.1377 37.7164 52.2677 39.6564 55.0777 37.3064C56.3977 36.2064 54.1577 33.5964 56.6177 34.2364C57.1377 34.3764 57.4177 34.8664 57.4277 35.5164C57.4677 38.2764 55.3977 40.2264 52.7077 40.2664H52.6977Z" fill="white"/>
<path d="M65.5873 29.8763C57.7973 31.0563 59.1573 28.4063 59.4373 28.3863L64.6073 28.0863C65.2573 28.0463 65.8573 27.9463 66.0473 28.5563C66.1573 28.9263 66.2573 29.7763 65.5873 29.8763Z" fill="white"/>
<path d="M31.0981 38.2563C32.4481 39.6163 27.0081 42.0363 25.8681 41.3563C23.8781 40.1663 28.3481 39.1263 30.1881 38.1663C30.5781 37.9563 30.9281 38.0863 31.0981 38.2563Z" fill="white"/>
<path d="M50.9672 10.5964C49.3272 10.7864 47.8772 10.5364 46.3472 10.4164C45.8272 10.3764 45.5072 8.99641 45.9172 8.84641C47.1572 8.40641 51.0272 8.48644 51.3072 9.46644C51.3772 9.71644 51.4672 10.5364 50.9672 10.5964Z" fill="white"/>
<path d="M56.9974 22.0764C56.5574 22.0764 56.4674 21.4364 56.4974 21.1864C56.5874 20.4164 59.1774 20.0964 60.9874 19.3864C61.4974 19.1864 62.0074 19.3564 62.1774 19.7764C62.8974 21.5564 58.3774 22.0763 56.9974 22.0663V22.0764Z" fill="white"/>
<path d="M11.5773 28.9163C12.7873 29.9863 8.65733 30.1063 6.77733 29.6763C6.32733 29.5763 6.47733 28.3063 6.91733 28.2063C8.69733 27.8063 10.3773 27.8563 11.5773 28.9263V28.9163Z" fill="white"/>
<path d="M19.028 18.7464C19.418 19.0264 19.608 19.4264 19.448 19.7164C19.208 20.1564 18.688 20.3864 18.218 20.0264C17.608 19.5564 13.838 16.1464 15.138 15.7664C16.018 15.5164 17.078 17.3364 19.028 18.7464Z" fill="white"/>
<path d="M58.0776 14.2662C57.4976 14.6662 54.8876 16.1162 54.2576 15.3462C54.1076 15.1562 53.9076 14.5862 54.2276 14.3562C55.2376 13.6462 56.8976 12.6362 57.8976 13.2662C58.1176 13.4062 58.4176 14.0162 58.0676 14.2562L58.0776 14.2662Z" fill="white"/>
</svg>
