<svg width="89" height="66" viewBox="0 0 89 66" fill="none" xmlns="http://www.w3.org/2000/svg">
<path d="M69.8057 31.7139L77.0257 31.8239C79.7657 40.5239 83.1057 48.7439 86.5657 57.1639C87.4657 59.3639 88.4857 61.3039 88.8957 63.7439C78.9457 64.5939 71.6057 64.5139 61.6757 65.4939C58.1057 65.8439 54.7057 65.3139 51.3257 64.3039L43.4757 61.9539L29.1557 57.3539L2.88566 65.2839C2.03566 65.5439 0.905664 66.0139 0.205664 65.2439C-0.294336 64.6839 0.265669 63.5339 0.335669 62.8839C1.37567 61.1839 3.75567 53.8239 4.67567 52.0139C5.50567 50.3839 6.04567 48.7639 6.67567 47.0639L7.41566 45.0739C8.01566 43.4439 8.65567 41.9239 9.30567 40.3239L11.7857 34.1839C12.3357 33.9639 12.6657 33.7339 13.0057 33.5239L23.9757 30.9439L29.2757 29.5239C29.6157 30.5739 29.8957 31.4639 29.9357 32.5339L14.2457 36.0439C12.6557 39.6239 11.1857 43.0239 9.89567 47.0139L32.1057 38.2339C32.4157 38.1139 32.7757 38.0139 32.9757 38.1839C33.1157 38.2939 33.1957 38.6039 33.1457 38.9439L30.8457 54.7839L48.7857 60.6839L60.7957 47.1239C59.2957 43.6639 57.7557 40.3339 56.8257 36.6939C58.1857 35.1739 59.0557 33.6739 60.0457 31.9839L69.8057 31.7539V31.7139ZM79.3857 48.1639L74.8957 34.7239L63.4757 34.7539C61.8857 34.8239 60.3757 34.4639 58.8457 34.8439C60.3557 39.1539 61.9857 43.0139 63.8457 47.0039L79.3857 48.1639ZM9.46567 60.2739L28.2357 54.5539L29.9957 41.5239L10.1057 49.3039C9.19567 49.2739 8.82567 49.8939 8.53567 50.6139L4.14567 61.6139C6.10567 61.3239 7.68566 60.8039 9.45566 60.2739H9.46567ZM84.9057 60.6939L80.5357 50.6739L64.8957 49.3139L70.3757 61.9439L83.4257 61.2539C83.8057 61.2339 85.0557 61.2039 84.9157 60.6939H84.9057ZM58.1757 62.8039L67.7457 62.0039L62.0057 49.4939L51.4257 61.3439C53.6557 62.2339 55.7857 62.4839 58.1757 62.7939V62.8039Z" fill="white"/>
<path d="M60.076 9.57397C60.306 9.99397 60.426 10.494 60.426 10.494C60.426 10.494 60.5894 10.8821 60.686 11.134C62.7112 16.4173 61.446 19.584 59.776 25.594C57.636 30.154 55.226 34.324 52.296 38.384L45.596 47.654C45.356 47.994 44.926 48.174 44.646 48.114C43.716 47.924 40.346 42.994 39.476 41.764C35.446 36.114 31.826 30.354 29.326 23.874C26.576 16.754 28.196 8.92397 33.916 3.91397C36.366 1.77397 39.476 0.593971 42.726 0.153971C50.106 -0.866029 56.606 3.28397 60.086 9.57397H60.076ZM44.666 45.004L49.496 38.504C52.796 33.974 55.556 29.274 57.696 24.074C59.026 20.924 59.606 17.694 59.086 14.294C58.196 8.48397 53.856 3.78396 48.026 2.67396C44.546 2.01396 40.876 2.19397 37.746 3.91397C30.436 7.95397 28.336 16.464 31.716 24.104C35.096 31.744 39.396 38.554 44.666 45.014V45.004Z" fill="white"/>
<path d="M53.7153 16.844C53.7153 21.804 49.6953 25.834 44.7253 25.834C39.7553 25.834 35.7354 21.814 35.7354 16.844C35.7354 11.874 39.7553 7.854 44.7253 7.854C49.6953 7.854 53.7153 11.874 53.7153 16.844ZM51.6553 16.804C51.6553 12.974 48.5553 9.87401 44.7253 9.87401C40.8953 9.87401 37.7953 12.974 37.7953 16.804C37.7953 20.634 40.8953 23.734 44.7253 23.734C48.5553 23.734 51.6553 20.634 51.6553 16.804Z" fill="white"/>
</svg>
