<svg width="70" height="69" viewBox="0 0 70 69" fill="none" xmlns="http://www.w3.org/2000/svg">
<path d="M65.3403 21.6324C64.0203 20.2824 62.4203 19.1924 60.8103 17.9224C49.7303 28.6124 38.7203 33.5724 24.0303 37.1624C21.9103 37.6824 20.0103 37.9124 17.8403 38.1424L8.1603 39.1524L0.680298 39.0024C0.310298 39.0024 0.0302987 38.2824 0.0402987 37.9924C0.140299 36.3324 0.200299 33.1524 0.0402987 31.3524C0.160299 31.1424 0.100301 30.5024 0.620301 30.4824L13.3803 29.9724C24.7403 29.5124 44.6703 21.8824 53.4103 12.8824C52.0303 11.7424 50.8003 10.7424 49.3703 10.0824C49.2303 9.72238 48.8003 8.97239 49.0303 8.63239C49.2303 8.32239 49.8003 7.78238 50.2103 7.69238C51.0003 7.51238 52.3403 6.97239 52.9103 6.49239C53.0603 6.36239 53.4303 6.20239 53.6303 6.17239C55.4103 5.92239 58.4903 3.93239 60.2003 3.27239C62.8903 2.23239 65.7003 1.34239 68.4703 0.0623861C68.8003 -0.0876139 69.2503 0.0623855 69.4203 0.202385C69.5903 0.342385 69.9803 0.73238 69.9403 1.14238L67.8303 21.5624C67.7303 22.4924 65.7003 22.2824 65.3603 21.6424L65.3403 21.6324ZM2.4603 36.9324C16.0603 37.5724 27.8403 34.6024 39.9103 29.5324C47.7903 26.2224 54.5803 21.3224 60.5403 15.2924L65.9703 19.2824L67.3603 3.08238L52.3303 9.37238L55.5403 11.7724C56.0003 12.1024 56.2103 12.5224 56.1903 13.0124C56.1803 13.4624 55.8403 13.5624 55.4503 13.9224C46.1703 22.4224 35.0803 28.6224 22.6003 30.6024L11.0703 32.4324L2.2603 32.8724C2.3203 34.2324 1.98029 35.4624 2.45029 36.9424L2.4603 36.9324Z" fill="white"/>
<path d="M69.7197 25.8224V62.3124H55.9697V25.8224H69.7197ZM58.1297 28.1024V60.1424H67.5097V28.1024H58.1297Z" fill="white"/>
<path d="M51.0701 62.3123H37.3701V34.6423H51.0701V62.3123ZM48.8601 36.7523H39.4401L39.4601 60.1423H48.8801L48.8601 36.7523Z" fill="white"/>
<path d="M0.212268 66.0284L0.211914 68.0583L69.6819 68.0705L69.6823 66.0405L0.212268 66.0284Z" fill="white"/>
<path d="M32.3501 60.9624C32.2501 61.3724 32.1601 62.2524 31.4601 62.2524L19.9401 62.3324C19.3201 62.3324 18.9401 62.1624 18.6201 61.8224L18.6901 41.9624L32.2501 42.0724L32.3401 60.9624H32.3501ZM20.7301 44.0324V60.1524H30.1401V44.0324H20.7301Z" fill="white"/>
<path d="M13.61 62.3124H0V46.3524H13.61V62.3124ZM11.5 60.0524L11.41 48.4624L2.32 48.3724L2.29 60.1324L11.5 60.0524Z" fill="white"/>
</svg>
