<svg width="63" height="76" viewBox="0 0 63 76" fill="none" xmlns="http://www.w3.org/2000/svg">
<path d="M58.45 75.48H3.63C2.15 75.4901 0.0300064 73.4701 0.0300064 71.9601L0 9.43006C0.58 8.05006 2.47 6.52005 3.87 6.51005L15.68 6.44004C18.45 3.97004 21.33 5.17004 24.62 4.75004C25.72 1.86004 28.09 -0.00996009 30.99 3.99098e-05C33.89 0.0100399 36.29 1.88005 37.32 4.76005C40.72 5.24005 43.55 3.91004 46.27 6.44004L57.8 6.51005C59.53 6.52005 62.03 8.01006 62.03 10.0801L62.05 71.6401C62.05 73.1801 60.27 75.48 58.46 75.48H58.45ZM44.76 14.85C44.83 12.22 44.94 10.1501 44.71 7.86006C44.66 7.34006 43.58 7.13006 43.13 7.11006L35.81 6.94004C35.21 5.57004 34.58 4.33004 33.62 3.28004C32.01 1.54004 29.45 1.71006 27.89 3.46006C26.98 4.48006 26.55 5.73004 25.93 7.00004L18.66 7.12007C17.9 7.13007 17.34 7.56006 17.34 8.36006C17.35 10.4901 17.2 12.5201 17.37 14.6201C18.14 14.8001 18.84 14.9201 19.65 14.9201L44.75 14.85H44.76ZM47.12 8.88004C46.96 10.36 46.95 11.4801 47.13 12.7301L55.62 12.8001L55.64 69.3301L6.24001 69.2701L6.27 12.75L14.95 12.6801C15.02 11.3401 15.03 10.1701 14.95 8.86006L3.92001 8.79005C2.91001 8.79005 2.23 9.19005 2.23 10.35L2.27 71.53C2.27 72.49 3.06 73.19 3.98 73.19H58.01C58.89 73.18 59.66 72.5701 59.66 71.6401L59.64 10.35C59.64 9.31005 58.9 8.84007 58.08 8.84007L47.13 8.86006L47.12 8.88004ZM46.8 15.1401C46.17 16.0401 45.55 17.0801 44.51 17.0801L18.57 17.1C17.07 17.1 15.91 16.3001 15.06 15.1501C12.82 15.0401 10.73 14.9901 8.47 15.1501V67.0201L53.4 67.03V15.1201C51.05 14.9701 49.03 14.9401 46.81 15.1501L46.8 15.1401Z" fill="white"/>
<path fill-rule="evenodd" clip-rule="evenodd" d="M43.6566 27.8487C43.6474 27.8504 43.638 27.852 43.6283 27.8537L43.6566 27.8487ZM43.6566 27.8487C43.6484 27.8536 43.6369 27.8502 43.6283 27.8537C43.6004 27.8651 43.5732 27.8766 43.5403 27.8701" fill="white"/>
<path fill-rule="evenodd" clip-rule="evenodd" d="M43.5403 27.8701C43.5834 27.8787 43.622 27.8696 43.6566 27.8487C43.6521 27.8514 43.6467 27.8516 43.6413 27.8518L43.6283 27.8537C43.6004 27.8651 43.5732 27.8766 43.5403 27.8701Z" fill="white"/>
<path d="M32.9116 33.6932L32.892 33.6719C32.4233 33.162 31.9592 32.6574 31.4903 32.16L29.8303 30.4001C28.7763 29.2814 27.6177 30.5879 26.5169 31.8295C25.9153 32.5079 25.505 32.8094 24.9043 33.4949C24.5364 33.9147 24.2774 34.2147 23.9247 34.5377C23.5721 34.8608 23.4043 34.9949 23.4043 34.9949C23.1343 35.2348 23.2267 35.2005 22.9043 35.4949C22.5102 35.8547 22.2527 36.1501 21.7603 36.7001C21.3548 37.153 21.241 37.5033 20.8141 37.9362C20.6028 38.1503 20.2403 38.4501 20.2403 38.4501L15.2003 44.3101C14.8003 44.7601 15.5503 45.3701 15.9003 45.4201C16.2803 45.4701 16.7803 45.33 17.1303 44.9501L28.8403 32.2401L35.5503 39.16C35.8503 39.46 36.3703 39.4401 36.6503 39.1401L43.4003 31.9601C44.0603 31.2601 44.9303 30.4 45.6403 29.97C45.6403 29.97 46.6003 31.65 47.3403 31.57C47.9703 31.5 48.4203 31.1001 48.3903 30.3001C48.3705 29.7399 48.3857 29.1908 48.4008 28.6475C48.4313 27.5517 48.4611 26.4798 48.2003 25.3901C47.8854 25.4028 47.4124 25.3717 46.8695 25.3359C44.861 25.2036 41.895 25.0082 42.4303 26.7401C42.5703 27.1801 43.0503 27.7701 43.5403 27.8701C43.9602 28.7675 41.533 30.9259 40.5562 31.7944C40.3467 31.9807 40.2039 32.1077 40.1703 32.1501C38.8803 33.7701 37.5803 35.39 36.0903 37.03C34.9434 35.9034 33.9159 34.7858 32.9116 33.6932ZM43.5403 27.8701C43.572 27.8635 43.6014 27.8584 43.6283 27.8537L43.6566 27.8487C43.622 27.8696 43.5834 27.8787 43.5403 27.8701Z" fill="white"/>
<path d="M40.2104 61.3902L40.1904 40.8602C42.4104 40.7602 44.6304 40.6602 47.1204 40.9002V61.5702C44.6404 61.6302 42.3604 61.8702 40.2104 61.3902ZM45.1904 59.2902L45.1504 42.9902C44.0304 42.7402 43.1304 42.7402 42.1504 43.0002L42.2004 59.5102C43.3604 59.4702 44.3304 59.8502 45.2004 59.2802L45.1904 59.2902Z" fill="white"/>
<path d="M38.3999 61.3601C38.0999 61.3301 37.6799 61.6901 37.1899 61.6801L31.3599 61.6001C31.2199 61.2201 31.1299 60.7701 31.1299 60.2101V44.5601C33.4499 44.3801 35.7599 44.3801 38.2999 44.5801L38.3999 61.3501V61.3601ZM36.3399 46.4501H33.1499V59.5701H36.3399V46.4501Z" fill="white"/>
<path d="M23.58 47.22L29.21 47.45L29.46 60.23C29.47 60.78 29.33 61.26 29.09 61.56C26.84 61.71 24.54 61.8 22.31 61.46L22.21 48.43C22.21 48.09 22.2 47.47 22.58 47.38C22.87 47.31 23.28 47.22 23.57 47.23L23.58 47.22ZM27.38 49.23H24.3V59.58H27.38V49.23Z" fill="white"/>
<path d="M14.4905 50.8401L20.2405 50.9901L20.2905 61.3701C18.2305 61.9501 15.9605 61.6601 13.7005 61.5501C13.3505 61.5001 13.3105 60.6601 13.2305 60.4801V52.0801C13.2505 51.7701 13.2305 51.4301 13.3805 51.1201C13.5605 50.7801 14.2305 51.0101 14.4905 50.8401ZM15.2205 53.0201V59.5601H18.3005V53.0201H15.2205Z" fill="white"/>
</svg>
