<svg width="113" height="90" viewBox="0 0 113 90" fill="none" xmlns="http://www.w3.org/2000/svg">
<g clip-path="url(#clip0_119_1719)">
<path fill-rule="evenodd" clip-rule="evenodd" d="M55.9703 21.7473L45.1191 10.8737L55.9703 -2.67029e-05L66.823 10.8737L55.9703 21.7473ZM55.9703 18.4906L63.5729 10.8737L55.9703 3.25683L48.3692 10.8737L55.9703 18.4906Z" fill="white"/>
<path fill-rule="evenodd" clip-rule="evenodd" d="M35.2895 83.1781L34.5867 78.249L30.041 75.3884L30.8975 80.9556L35.2895 83.1781Z" fill="white"/>
<path fill-rule="evenodd" clip-rule="evenodd" d="M26.5734 78.1937L27.0413 73.411L23.4341 69.685L22.9639 75.1014L26.5734 78.1937Z" fill="white"/>
<path fill-rule="evenodd" clip-rule="evenodd" d="M19.3646 71.4972L20.8991 67.1382L18.0706 62.5188L16.4521 67.3444L19.3646 71.4972Z" fill="white"/>
<path fill-rule="evenodd" clip-rule="evenodd" d="M13.9851 63.8507L16.4005 59.6671L14.3557 54.7868L11.8369 59.2889L13.9851 63.8507Z" fill="white"/>
<path fill-rule="evenodd" clip-rule="evenodd" d="M9.78222 55.7412L12.9112 52.12L11.7973 47.4101L8.84863 50.6896L9.78222 55.7412Z" fill="white"/>
<path fill-rule="evenodd" clip-rule="evenodd" d="M7.77988 46.8775L11.3591 44.1254L10.9771 39.3665L7.69336 41.9845L7.77988 46.8775Z" fill="white"/>
<path fill-rule="evenodd" clip-rule="evenodd" d="M7.6875 37.8072L11.2177 35.8003L11.6509 30.6722L8.11177 32.9318L7.6875 37.8072Z" fill="white"/>
<path fill-rule="evenodd" clip-rule="evenodd" d="M9.53125 27.8552L12.6428 26.7278L14.3985 21.7866L10.9647 23.2341L9.53125 27.8552Z" fill="white"/>
<path fill-rule="evenodd" clip-rule="evenodd" d="M9.53224 20.1135L12.8217 16.1762L12.3001 10.895L8.95117 15.0209L9.53224 20.1135Z" fill="white"/>
<path fill-rule="evenodd" clip-rule="evenodd" d="M5.3854 26.746L6.92933 22.0471L4.66481 19.1591L2.9834 23.5257L5.3854 26.746Z" fill="white"/>
<path fill-rule="evenodd" clip-rule="evenodd" d="M3.38871 37.0671L3.95104 32.1523L1.14981 29.7834L0.385742 34.4009L3.38871 37.0671Z" fill="white"/>
<path fill-rule="evenodd" clip-rule="evenodd" d="M3.55753 46.8702L3.53557 42.0071L0 39.5207L0.116243 44.4276L3.55753 46.8702Z" fill="white"/>
<path fill-rule="evenodd" clip-rule="evenodd" d="M5.75912 56.5422L4.82977 51.5132L0.876953 49.6428L1.75536 54.6159L5.75912 56.5422Z" fill="white"/>
<path fill-rule="evenodd" clip-rule="evenodd" d="M9.9906 65.5742L7.90439 61.0193L3.04492 60.0483L5.0547 64.6798L9.9906 65.5742Z" fill="white"/>
<path fill-rule="evenodd" clip-rule="evenodd" d="M15.9444 73.9322L13.1719 69.8477L7.82227 69.8634L10.372 73.8772L15.9444 73.9322Z" fill="white"/>
<path fill-rule="evenodd" clip-rule="evenodd" d="M23.6938 81.1097L20.1363 77.6769L14.6533 78.842L17.8525 82.2319L23.6938 81.1097Z" fill="white"/>
<path fill-rule="evenodd" clip-rule="evenodd" d="M33.5733 87.1964L28.9617 84.8309L24.124 87.4052L27.994 89.9998L33.5733 87.1964Z" fill="white"/>
<path fill-rule="evenodd" clip-rule="evenodd" d="M9.67866 23.0106C-0.186535 48.7729 12.7367 77.6345 39.7574 86.2016C40.4865 86.5574 40.28 87.7677 39.2655 87.535C10.1436 77.7181 -1.59198 46.4404 8.40307 22.5576C8.91826 21.8085 9.79666 22.166 9.67866 23.0106Z" fill="#7199AA"/>
<path d="M43.2303 38.1231V29.1877H44.8246V30.1385C45.0311 29.8137 45.3107 29.5495 45.6635 29.3461C46.0163 29.143 46.4072 29.0414 46.8376 29.0414C47.5872 29.0414 48.2241 29.3362 48.7482 29.9253C49.2708 30.5146 49.5329 31.3352 49.5329 32.3876C49.5329 33.4684 49.2693 34.3085 48.7408 34.9079C48.2138 35.5075 47.5755 35.807 46.8259 35.807C46.4687 35.807 46.1452 35.7359 45.8553 35.5936C45.5654 35.4514 45.2609 35.2076 44.9403 34.8623V38.1231H43.2303ZM51.237 34.7037C50.811 34.1146 50.5972 33.371 50.5972 32.4729C50.5972 31.4004 50.8768 30.5601 51.4375 29.9526C51.9968 29.3451 52.7039 29.0414 53.5604 29.0414C54.5207 29.0414 55.2791 29.3593 55.8339 29.9953C56.3903 30.6312 56.6553 31.6056 56.6318 32.918H52.3496C52.3613 33.426 52.4989 33.821 52.7625 34.1034C53.026 34.3858 53.3554 34.5269 53.7477 34.5269C54.0156 34.5269 54.2411 34.4539 54.4241 34.3075C54.6056 34.1612 54.7433 33.9256 54.837 33.6005L56.5396 33.887C56.3215 34.5129 55.9759 34.9892 55.5031 35.3163C55.0302 35.6435 54.4402 35.807 53.7302 35.807C52.6073 35.807 51.7757 35.4393 51.237 34.7037ZM64.2066 35.6515C63.9592 35.5478 63.7776 35.4137 63.662 35.2493C63.5463 35.0847 63.4658 34.8623 63.4219 34.5818C63.3853 34.3827 63.3663 33.9803 63.3663 33.3749V30.553H62.5816V29.1877H63.3663V27.9017L65.0821 26.902V29.1877H66.2503V30.553H65.0821V33.1618C65.0821 33.6897 65.0923 33.9977 65.1157 34.0851C65.1377 34.1725 65.1889 34.2445 65.268 34.3015C65.3471 34.3585 65.4422 34.387 65.5564 34.3867C65.7145 34.387 65.9444 34.332 66.243 34.2222L66.3894 35.5509C65.9927 35.7217 65.5418 35.807 65.0396 35.807C64.7307 35.807 64.454 35.7551 64.2066 35.6515ZM71.7169 35.2706C71.2031 34.9129 70.8678 34.4273 70.7097 33.814L72.4255 33.5518C72.4987 33.8848 72.6466 34.1377 72.8691 34.3107C73.0916 34.4834 73.4049 34.5696 73.8061 34.5696C74.2482 34.5696 74.5805 34.4885 74.8031 34.326C74.9539 34.2121 75.0285 34.0597 75.0285 33.8687C75.0285 33.7387 74.9875 33.6311 74.907 33.5457C74.8221 33.4644 74.6318 33.3891 74.3346 33.3202C72.9569 33.0154 72.0829 32.7371 71.714 32.4852C71.2031 32.1358 70.9469 31.6502 70.9469 31.0285C70.9469 30.4678 71.1679 29.9963 71.6101 29.6144C72.0522 29.2324 72.7373 29.0414 73.6655 29.0414C74.5498 29.0414 75.2071 29.1856 75.6361 29.4742C76.0665 29.7626 76.3622 30.1894 76.5247 30.7541L74.9129 31.0528C74.8441 30.8009 74.7137 30.6077 74.5205 30.4738C74.3287 30.3396 74.0535 30.2727 73.6963 30.2727C73.2468 30.2727 72.9233 30.3356 72.73 30.4616C72.5997 30.551 72.5353 30.6667 72.5353 30.8092C72.5353 30.9309 72.5909 31.0346 72.7051 31.12C72.8589 31.2337 73.3918 31.394 74.3024 31.6013C75.2115 31.8086 75.8484 32.0625 76.2085 32.3631C76.5657 32.668 76.7443 33.0925 76.7443 33.6371C76.7443 34.2303 76.4969 34.7404 76.0021 35.1668C75.5072 35.5937 74.7752 35.807 73.8061 35.807C72.9262 35.807 72.2293 35.6282 71.7169 35.2706ZM78.5875 34.7037C78.1615 34.1146 77.9492 33.371 77.9492 32.4729C77.9492 31.4004 78.2288 30.5601 78.7881 29.9526C79.3488 29.3451 80.0559 29.0414 80.9109 29.0414C81.8727 29.0414 82.6311 29.3593 83.186 29.9953C83.7423 30.6312 84.0073 31.6056 83.9824 32.918H79.7001C79.7133 33.426 79.851 33.821 80.1145 34.1034C80.378 34.3858 80.7059 34.5269 81.0997 34.5269C81.3677 34.5269 81.5931 34.4539 81.7747 34.3075C81.9577 34.1612 82.0953 33.9256 82.189 33.6005L83.8916 33.887C83.6735 34.5129 83.3265 34.9892 82.8551 35.3163C82.3822 35.6435 81.7908 35.807 81.0822 35.807C79.9578 35.807 79.1277 35.4393 78.5875 34.7037ZM27.6387 35.6606V26.7254H34.2516V28.2369H29.4394V30.2177H33.9163V31.7232H29.4394V34.1551H34.4214V35.6606H27.6387ZM35.3232 35.6606L37.6525 32.3268L35.4199 29.1877H37.5061L38.6494 30.9676L39.8543 29.1877H41.8615L39.6713 32.2536L42.0621 35.6606H39.9641L38.6494 33.6554L37.3231 35.6606H35.3232ZM58.1588 35.6606V29.1877H59.7472V30.1081C60.0181 29.6734 60.2626 29.3869 60.4792 29.2487C60.6959 29.1105 60.9433 29.0414 61.2186 29.0414C61.608 29.0414 61.9828 29.1493 62.3444 29.3646L61.8144 30.8579C61.5275 30.671 61.2595 30.5775 61.0121 30.5775C60.772 30.5775 60.57 30.6434 60.4031 30.7754C60.2377 30.9076 60.1059 31.1463 60.0107 31.4916C59.9156 31.8369 59.8687 32.5603 59.8687 33.6616V35.6606H58.1588ZM67.6441 35.6606V29.1877H69.3526V35.6606H67.6441ZM47.3969 33.9693C47.6604 33.6503 47.7922 33.127 47.7922 32.3998C47.7922 31.7212 47.6575 31.2174 47.3852 30.8884C47.1129 30.559 46.7776 30.3946 46.375 30.3946C45.9578 30.3946 45.6108 30.5561 45.3356 30.8791C45.0589 31.2023 44.9213 31.6805 44.9213 32.3144C44.9213 33.0418 45.0662 33.5791 45.3531 33.9267C45.6415 34.274 45.9929 34.4477 46.4058 34.4477C46.804 34.4477 47.1334 34.2883 47.3969 33.9693ZM54.5515 30.7389C54.3084 30.4808 54.0113 30.3519 53.6628 30.3519C53.2895 30.3519 52.9821 30.488 52.739 30.7602C52.496 31.0326 52.376 31.4024 52.3804 31.8696H54.9351C54.9219 31.3738 54.7945 30.9968 54.5515 30.7389ZM81.9035 30.7389C81.659 30.4808 81.3633 30.3519 81.0148 30.3519C80.6415 30.3519 80.3341 30.488 80.0896 30.7602C79.8466 31.0326 79.7265 31.4024 79.7309 31.8696H82.2856C82.2739 31.3738 82.1465 30.9968 81.9035 30.7389ZM67.6441 28.3101V26.7254H69.3526V28.3101H67.6441Z" fill="white"/>
<path d="M62.3127 54.4738C62.0594 54.2654 61.932 54.0009 61.932 53.6806C61.932 53.6491 61.9335 53.6107 61.935 53.5656L63.0183 53.6975C63.0374 53.8238 63.0783 53.9107 63.1442 53.958C63.2335 54.0257 63.3755 54.0596 63.5688 54.0596C63.8162 54.0596 64.0021 54.0223 64.1266 53.9479C64.21 53.8982 64.273 53.8182 64.3154 53.7078C64.3447 53.6288 64.3594 53.4833 64.3594 53.2712V52.7469C64.0753 53.1348 63.7181 53.3288 63.2848 53.3288C62.8031 53.3288 62.4225 53.1246 62.1414 52.7165C61.9203 52.3939 61.8105 51.9926 61.8105 51.5123C61.8105 50.9101 61.9554 50.45 62.2439 50.132C62.5337 49.8141 62.8924 49.6551 63.3228 49.6551C63.7664 49.6551 64.1324 49.8502 64.4194 50.2403V49.7362H65.308V52.9601C65.308 53.3842 65.2729 53.701 65.2026 53.9107C65.1338 54.1204 65.0357 54.285 64.9098 54.4046C64.7839 54.524 64.6155 54.6176 64.4047 54.6854C64.1939 54.753 63.9275 54.7869 63.6069 54.7867C62.9993 54.7869 62.5674 54.6826 62.3127 54.4738ZM41.5458 52.7977C41.3086 52.4707 41.19 52.058 41.19 51.5595C41.19 50.9642 41.3452 50.498 41.657 50.1608C41.9674 49.8236 42.3597 49.6551 42.8341 49.6551C43.3684 49.6551 43.7886 49.8316 44.0975 50.1845C44.405 50.5375 44.5528 51.0782 44.5397 51.8066H42.1636C42.1694 52.0885 42.2456 52.3078 42.392 52.4645C42.5384 52.6213 42.7214 52.6997 42.9395 52.6997C43.0874 52.6997 43.2133 52.659 43.3143 52.5778C43.4153 52.4966 43.4914 52.3658 43.5441 52.1853L44.4884 52.3445C44.3669 52.6917 44.1751 52.9561 43.9131 53.1377C43.651 53.3193 43.3231 53.41 42.9292 53.41C42.3056 53.41 41.8444 53.2059 41.5458 52.7977ZM45.825 53.1123C45.541 52.9138 45.3536 52.6442 45.2658 52.3039L46.2189 52.1583C46.2584 52.3432 46.3404 52.4836 46.4648 52.5795C46.5892 52.6753 46.762 52.7233 46.9845 52.7233C47.2305 52.7233 47.415 52.6782 47.5379 52.588C47.6214 52.5248 47.6638 52.4403 47.6638 52.3342C47.6638 52.2621 47.6404 52.2024 47.595 52.155C47.5482 52.1099 47.4428 52.0681 47.2788 52.0298C46.5131 51.8607 46.0285 51.7062 45.8236 51.5664C45.5396 51.3725 45.3976 51.1029 45.3976 50.7578C45.3976 50.4467 45.5205 50.1851 45.7665 49.9731C46.011 49.7611 46.3916 49.6551 46.9069 49.6551C47.3974 49.6551 47.7619 49.7352 48.0005 49.8952C48.2392 50.0553 48.4032 50.2922 48.4939 50.6057L47.5994 50.7715C47.5613 50.6317 47.4881 50.5244 47.3813 50.45C47.2744 50.3755 47.1221 50.3384 46.9245 50.3384C46.6742 50.3384 46.4956 50.3733 46.3872 50.4433C46.3155 50.4929 46.2789 50.5571 46.2789 50.6362C46.2789 50.7038 46.3111 50.7613 46.374 50.8087C46.459 50.8718 46.7547 50.9608 47.2598 51.0759C47.7648 51.1909 48.1177 51.3318 48.3182 51.4986C48.5159 51.6678 48.6154 51.9035 48.6154 52.2057C48.6154 52.5349 48.4778 52.818 48.204 53.0548C47.9288 53.2916 47.5233 53.41 46.9845 53.41C46.497 53.41 46.1105 53.3108 45.825 53.1123ZM50.2434 53.3237C50.1058 53.2662 50.0062 53.1918 49.9418 53.1004C49.8774 53.0092 49.832 52.8857 49.8086 52.73C49.7881 52.6196 49.7778 52.3963 49.7778 52.0602V50.4941H49.3416V49.7362H49.7778V49.0225L50.7295 48.4677V49.7362H51.378V50.4941H50.7295V51.9418C50.7295 52.2349 50.7353 52.4058 50.7485 52.4544C50.7602 52.5028 50.788 52.5428 50.8319 52.5744C50.8759 52.6061 50.93 52.6219 50.993 52.6218C51.0808 52.6219 51.2082 52.5914 51.3751 52.5305L51.4556 53.2678C51.2345 53.3627 50.9857 53.41 50.706 53.41C50.5348 53.41 50.381 53.3812 50.2434 53.3237ZM69.2535 53.3237C69.1159 53.2662 69.0149 53.1918 68.9505 53.1004C68.8861 53.0092 68.8421 52.8857 68.8172 52.73C68.7967 52.6196 68.7865 52.3963 68.7865 52.0602V50.4941H68.3517V49.7362H68.7865V49.0225L69.7396 48.4677V49.7362H70.3867V50.4941H69.7396V51.9418C69.7396 52.2349 69.7454 52.4058 69.7571 52.4544C69.7703 52.5028 69.7981 52.5428 69.842 52.5744C69.886 52.6061 69.9387 52.6219 70.0016 52.6218C70.0895 52.6219 70.2168 52.5914 70.3837 52.5305L70.4642 53.2678C70.2446 53.3627 69.9943 53.41 69.7147 53.41C69.5449 53.41 69.3897 53.3812 69.2535 53.3237ZM71.4027 53.1089C71.1904 52.9083 71.0835 52.6546 71.0835 52.3479C71.0835 52.1448 71.1318 51.964 71.2285 51.8048C71.3251 51.6459 71.4612 51.524 71.6355 51.4395C71.8097 51.3549 72.0615 51.2809 72.3894 51.2179C72.833 51.1345 73.1404 51.0568 73.3117 50.9846V50.8898C73.3117 50.7072 73.2664 50.5769 73.1771 50.4992C73.0863 50.4213 72.9165 50.3824 72.6676 50.3824C72.4978 50.3824 72.366 50.4157 72.2723 50.4822C72.1771 50.5488 72.101 50.6655 72.0424 50.8323L71.1816 50.6767C71.2782 50.3293 71.4451 50.0724 71.6808 49.9055C71.918 49.7385 72.2679 49.6551 72.7349 49.6551C73.158 49.6551 73.4728 49.7052 73.6792 49.8056C73.8871 49.9059 74.032 50.0334 74.1169 50.1879C74.2018 50.3424 74.2428 50.6259 74.2428 51.0386L74.2326 52.1482C74.2326 52.4639 74.2487 52.6969 74.2794 52.8468C74.3087 52.9967 74.3658 53.1574 74.4493 53.3288H73.5108C73.4859 53.2656 73.4552 53.172 73.4201 53.0481C73.404 52.9916 73.3923 52.9545 73.3864 52.9364C73.2239 53.0943 73.0512 53.2127 72.8667 53.2916C72.6822 53.3705 72.4846 53.41 72.2752 53.41C71.9063 53.41 71.615 53.3096 71.4027 53.1089ZM36.1963 53.3288V48.3696H38.1741C38.5665 48.3696 38.8579 48.386 39.0511 48.4187C39.2429 48.4513 39.4156 48.5195 39.5679 48.6233C39.7187 48.7271 39.8461 48.8653 39.9471 49.0378C40.0481 49.2103 40.0993 49.4036 40.0993 49.618C40.0993 49.8502 40.0364 50.0632 39.9119 50.2573C39.7875 50.4511 39.6177 50.5966 39.4039 50.6936C39.7055 50.7816 39.9368 50.9315 40.0993 51.1435C40.2618 51.3555 40.3423 51.6047 40.3423 51.8912C40.3423 52.1167 40.2896 52.336 40.1857 52.549C40.0803 52.7622 39.9383 52.9323 39.7567 53.0598C39.5752 53.1873 39.3527 53.2656 39.0862 53.295C38.9193 53.313 38.5182 53.3243 37.8813 53.3288H36.1963ZM54.5359 53.3288V48.3696H56.363C56.7743 48.3696 57.0891 48.4012 57.3043 48.4643C57.5956 48.55 57.8431 48.7021 58.0509 48.921C58.2574 49.1397 58.4155 49.4076 58.5238 49.7245C58.6307 50.0413 58.6849 50.432 58.6849 50.8966C58.6849 51.3047 58.6351 51.6566 58.5341 51.9519C58.4096 52.3128 58.2325 52.6049 58.0041 52.8282C57.8299 52.9973 57.5956 53.1292 57.3014 53.224C57.0803 53.2939 56.7861 53.3288 56.4171 53.3288H54.5359ZM59.8136 53.3288V49.7362H60.7623V53.3288H59.8136ZM66.5334 53.3288V49.7362H67.4821V53.3288H66.5334ZM75.4668 53.3288V48.3696H76.4154V53.3288H75.4668ZM73.0482 52.571C73.1639 52.4853 73.2385 52.3804 73.2751 52.2563C73.3 52.1754 73.3117 52.0209 73.3117 51.7931V51.6035C73.1902 51.6442 72.997 51.6926 72.7349 51.7491C72.4714 51.8054 72.2986 51.8607 72.2181 51.9148C72.0937 52.0028 72.0322 52.1143 72.0322 52.2497C72.0322 52.3828 72.082 52.4978 72.1801 52.5948C72.2796 52.6917 72.4055 52.7402 72.5592 52.7402C72.7305 52.7402 72.893 52.6838 73.0482 52.571ZM64.1368 52.2886C64.2964 52.107 64.3755 51.8381 64.3755 51.4818C64.3755 51.1097 64.2993 50.8334 64.1471 50.6529C63.9933 50.4725 63.8001 50.3824 63.5659 50.3824C63.3389 50.3824 63.1515 50.4709 63.0037 50.6479C62.8558 50.825 62.7826 51.0951 62.7826 51.4582C62.7826 51.8393 62.8558 52.1183 63.0037 52.2954C63.1515 52.4724 63.3331 52.5609 63.5483 52.5609C63.7811 52.5609 63.9758 52.4701 64.1368 52.2886ZM38.8066 52.4627C38.9545 52.4358 39.076 52.3697 39.1697 52.2648C39.2619 52.16 39.3087 52.0196 39.3087 51.8437C39.3087 51.6949 39.2736 51.5686 39.2019 51.4649C39.1287 51.3612 39.0247 51.2856 38.8886 51.2383C38.7524 51.1909 38.4567 51.1672 38.0029 51.1672H37.1962V52.4933H38.1214C38.4816 52.4933 38.7085 52.4831 38.8066 52.4627ZM56.8856 52.4459C57.0481 52.4052 57.1828 52.3366 57.2897 52.2396C57.3965 52.1426 57.4829 51.9829 57.5517 51.7609C57.6191 51.5387 57.6527 51.2361 57.6527 50.8526C57.6527 50.4693 57.6191 50.1748 57.5517 49.9697C57.4829 49.7645 57.3892 49.6043 57.2677 49.4893C57.1462 49.3743 56.9925 49.2965 56.8051 49.2559C56.666 49.2244 56.3922 49.2085 55.9852 49.2085H55.5358V52.4933H56.2824C56.5606 52.4933 56.7626 52.4774 56.8856 52.4459ZM43.3846 50.5972C43.2499 50.454 43.0859 50.3824 42.8926 50.3824C42.6848 50.3824 42.5135 50.458 42.3788 50.6091C42.2441 50.7602 42.1767 50.9654 42.1797 51.2248H43.5983C43.591 50.9495 43.5207 50.7404 43.3846 50.5972ZM38.5767 50.3249C38.748 50.3047 38.8827 50.2455 38.9793 50.1474C39.0774 50.0491 39.1272 49.92 39.1272 49.76C39.1272 49.6067 39.0848 49.4821 38.9998 49.3862C38.9164 49.2902 38.7905 49.2321 38.6236 49.2119C38.5241 49.2006 38.24 49.195 37.7701 49.195H37.1962V50.3418H37.8506C38.24 50.3418 38.4816 50.3362 38.5767 50.3249ZM59.8136 49.2492V48.3696H60.7623V49.2492H59.8136ZM66.5334 49.2492V48.3696H67.4821V49.2492H66.5334Z" fill="white"/>
<path d="M57.5882 63.8899C57.3349 63.6814 57.2076 63.4169 57.2076 63.0967C57.2076 63.0651 57.209 63.0267 57.2105 62.9816L58.2953 63.1135C58.3129 63.2398 58.3539 63.3267 58.4198 63.3741C58.5091 63.4417 58.6511 63.4756 58.8443 63.4756C59.0917 63.4756 59.2777 63.4383 59.4021 63.3639C59.4855 63.3142 59.5485 63.2343 59.591 63.1238C59.6202 63.0449 59.6349 62.8993 59.6349 62.6872V62.1629C59.3509 62.5508 58.9936 62.7449 58.5618 62.7449C58.0801 62.7449 57.698 62.5407 57.4169 62.1325C57.1959 61.81 57.0861 61.4086 57.0861 60.9283C57.0861 60.3261 57.231 59.8661 57.5194 59.548C57.8093 59.2301 58.1679 59.0711 58.5984 59.0711C59.042 59.0711 59.408 59.2662 59.6964 59.6563V59.1522H60.5836V62.3761C60.5836 62.8002 60.5484 63.117 60.4782 63.3267C60.4094 63.5365 60.3113 63.701 60.1854 63.8206C60.0595 63.94 59.8911 64.0336 59.6803 64.1014C59.4694 64.169 59.2045 64.2029 58.8824 64.2028C58.2748 64.2029 57.843 64.0986 57.5882 63.8899ZM69.5067 63.8899C69.2519 63.6814 69.1246 63.4169 69.1246 63.0967C69.1246 63.0651 69.126 63.0267 69.1275 62.9816L70.2123 63.1135C70.2299 63.2398 70.2709 63.3267 70.3368 63.3741C70.4261 63.4417 70.5681 63.4756 70.7628 63.4756C71.0102 63.4756 71.1947 63.4383 71.3191 63.3639C71.4026 63.3142 71.4655 63.2343 71.508 63.1238C71.5372 63.0449 71.5519 62.8993 71.5519 62.6872V62.1629C71.2679 62.5508 70.9106 62.7449 70.4788 62.7449C69.9971 62.7449 69.615 62.5407 69.3339 62.1325C69.1129 61.81 69.0031 61.4086 69.0031 60.9283C69.0031 60.3261 69.148 59.8661 69.4364 59.548C69.7263 59.2301 70.0864 59.0711 70.5154 59.0711C70.959 59.0711 71.325 59.2662 71.6134 59.6563V59.1522H72.5006V62.3761C72.5006 62.8002 72.4654 63.117 72.3966 63.3267C72.3263 63.5365 72.2282 63.701 72.1023 63.8206C71.9764 63.94 71.8081 64.0336 71.5973 64.1014C71.3865 64.169 71.1215 64.2029 70.7994 64.2028C70.1918 64.2029 69.7599 64.0986 69.5067 63.8899ZM86.6004 64.1453L86.5155 63.4011C86.6633 63.4304 86.798 63.4451 86.9166 63.4451C87.1377 63.4451 87.3002 63.3802 87.4071 63.2505C87.5125 63.1209 87.593 62.9557 87.6501 62.755L86.2856 59.1522H87.2958L88.1522 61.7029L88.9897 59.1522H89.972L88.7056 62.6095L88.4802 63.2354C88.3967 63.4451 88.3177 63.6051 88.2416 63.7157C88.1669 63.8262 88.0805 63.9158 87.9824 63.9846C87.8843 64.0534 87.7643 64.107 87.6208 64.1453C87.4773 64.1837 87.3163 64.2029 87.1362 64.2028C86.9547 64.2029 86.7746 64.1837 86.6004 64.1453ZM32.277 62.525C32.0633 62.3243 31.9579 62.0706 31.9579 61.7639C31.9579 61.5609 32.0062 61.38 32.1028 61.2208C32.1994 61.0619 32.3356 60.94 32.5098 60.8555C32.684 60.7709 32.9358 60.697 33.2638 60.6339C33.7074 60.5506 34.0148 60.4728 34.1861 60.4006V60.3059C34.1861 60.1232 34.1407 59.993 34.0499 59.9152C33.9606 59.8373 33.7908 59.7984 33.5405 59.7984C33.3721 59.7984 33.2403 59.8317 33.1452 59.8982C33.0515 59.9648 32.9754 60.0816 32.9168 60.2484L32.056 60.0927C32.1526 59.7453 32.318 59.4885 32.5552 59.3215C32.7909 59.1546 33.1423 59.0711 33.6078 59.0711C34.0309 59.0711 34.3471 59.1213 34.5535 59.2216C34.76 59.322 34.9064 59.4494 34.9913 59.6039C35.0747 59.7584 35.1172 60.0419 35.1172 60.4546L35.1069 61.5642C35.1069 61.8799 35.1216 62.1129 35.1523 62.2628C35.1831 62.4127 35.2402 62.5734 35.3236 62.7449H34.3852C34.3603 62.6816 34.3296 62.588 34.293 62.4641C34.2783 62.4076 34.2666 62.3705 34.2593 62.3525C34.0982 62.5103 33.924 62.6287 33.7396 62.7076C33.5551 62.7865 33.3589 62.826 33.1496 62.826C32.7806 62.826 32.4893 62.7257 32.277 62.525ZM43.7021 62.2137C43.4664 61.8867 43.3478 61.474 43.3478 60.9755C43.3478 60.3802 43.503 59.914 43.8134 59.5768C44.1237 59.2397 44.5176 59.0711 44.9919 59.0711C45.5263 59.0711 45.9464 59.2476 46.2553 59.6005C46.5628 59.9535 46.7107 60.4942 46.6975 61.2226H44.3199C44.3273 61.5045 44.4034 61.7238 44.5498 61.8805C44.6962 62.0373 44.8792 62.1157 45.0973 62.1157C45.2452 62.1157 45.3696 62.075 45.4721 61.9938C45.5731 61.9126 45.6492 61.7818 45.7005 61.6014L46.6462 61.7605C46.5247 62.1078 46.3329 62.3721 46.0709 62.5537C45.8088 62.7353 45.4809 62.826 45.0871 62.826C44.4634 62.826 44.0022 62.6219 43.7021 62.2137ZM48.3255 62.7397C48.1878 62.6822 48.0868 62.6079 48.0239 62.5165C47.9594 62.4252 47.9141 62.3017 47.8892 62.146C47.8702 62.0356 47.8599 61.8123 47.8599 61.4762V59.9101H47.4236V59.1522H47.8599V58.4385L48.8115 57.8837V59.1522H49.4601V59.9101H48.8115V61.3578C48.8115 61.6509 48.8174 61.8218 48.8305 61.8704C48.8422 61.9188 48.8701 61.9589 48.914 61.9904C48.9579 62.0221 49.0121 62.0379 49.075 62.0378C49.1629 62.0379 49.2902 62.0074 49.4557 61.9465L49.5376 62.6838C49.3166 62.7788 49.0677 62.826 48.7881 62.826C48.6168 62.826 48.4631 62.7972 48.3255 62.7397ZM73.8621 62.2137C73.6264 61.8867 73.5078 61.474 73.5078 60.9755C73.5078 60.3802 73.663 59.914 73.9733 59.5768C74.2837 59.2397 74.6775 59.0711 75.1519 59.0711C75.6848 59.0711 76.1064 59.2476 76.4138 59.6005C76.7228 59.9535 76.8706 60.4942 76.856 61.2226H74.4799C74.4872 61.5045 74.5633 61.7238 74.7097 61.8805C74.8561 62.0373 75.0377 62.1157 75.2558 62.1157C75.4051 62.1157 75.5296 62.075 75.6306 61.9938C75.7331 61.9126 75.8092 61.7818 75.8605 61.6014L76.8062 61.7605C76.6847 62.1078 76.4929 62.3721 76.2309 62.5537C75.9688 62.7353 75.6409 62.826 75.247 62.826C74.6234 62.826 74.1622 62.6219 73.8621 62.2137ZM82.8028 62.3287C82.4909 61.9973 82.3343 61.5383 82.3343 60.9519C82.3343 60.3588 82.4909 59.897 82.8042 59.5666C83.1175 59.2363 83.5392 59.0711 84.0735 59.0711C84.5098 59.0711 84.8568 59.1653 85.1144 59.3536C85.3721 59.5419 85.558 59.8288 85.6707 60.2145L84.7352 60.3836C84.703 60.1964 84.6328 60.0554 84.52 59.9607C84.4088 59.8661 84.2653 59.8187 84.0867 59.8187C83.851 59.8187 83.6621 59.9005 83.5216 60.064C83.381 60.2275 83.3108 60.501 83.3108 60.8843C83.3108 61.3106 83.3825 61.6116 83.5245 61.7875C83.668 61.9634 83.8598 62.0513 84.0999 62.0513C84.2799 62.0513 84.4278 61.9999 84.542 61.8974C84.6577 61.7947 84.7382 61.6182 84.785 61.368L85.7176 61.527C85.621 61.9555 85.435 62.2792 85.1598 62.498C84.886 62.7167 84.5186 62.826 84.056 62.826C83.5318 62.826 83.1146 62.6604 82.8028 62.3287ZM26.0957 62.7449V57.7856H27.5908L28.4896 61.1684L29.3768 57.7856H30.876V62.7449H29.9478V58.8411L28.9654 62.7449H28.0036L27.024 58.8411V62.7449H26.0957ZM36.3572 62.7449V59.1522H37.2385V59.6632C37.3893 59.4219 37.5255 59.2628 37.6455 59.1861C37.7656 59.1095 37.9017 59.0711 38.0555 59.0711C38.2721 59.0711 38.48 59.131 38.6806 59.2504L38.3863 60.0792C38.2267 59.9755 38.0774 59.9236 37.9413 59.9236C37.808 59.9236 37.6953 59.9601 37.6031 60.0334C37.5108 60.1068 37.4391 60.2393 37.3849 60.431C37.3322 60.6226 37.3059 61.0241 37.3059 61.6352V62.7449H36.3572ZM39.4009 62.7449V57.7856H40.3496V60.4174L41.4593 59.1522H42.6275L41.4022 60.4649L42.7154 62.7449H41.6935L40.7917 61.1312L40.3496 61.5948V62.7449H39.4009ZM50.4629 62.7449V59.1522H51.4116V62.7449H50.4629ZM52.7233 62.7449V59.1522H53.6046V59.6799C53.9165 59.2741 54.3103 59.0711 54.7861 59.0711C54.9955 59.0711 55.1872 59.1089 55.36 59.1845C55.5327 59.2599 55.6645 59.3564 55.7538 59.4736C55.8417 59.591 55.9046 59.7241 55.9383 59.8728C55.9734 60.0217 55.991 60.2347 55.991 60.5121V62.7449H55.0423V60.9113C55.0423 60.5234 55.0218 60.2726 54.9823 60.1587C54.9413 60.0447 54.8754 59.9563 54.7846 59.893C54.6939 59.83 54.5841 59.7984 54.4552 59.7984C54.2913 59.7984 54.1434 59.8436 54.0131 59.9337C53.8828 60.0239 53.7935 60.1435 53.7437 60.2924C53.6954 60.4411 53.672 60.7163 53.672 61.1177V62.7449H52.7233ZM63.3813 62.7449L65.3094 57.7856H66.3649L68.3472 62.7449H67.2594L66.8275 61.6184H64.8497L64.4412 62.7449H63.3813ZM77.9686 62.7449V59.1522H78.85V59.6799C79.1618 59.2741 79.5556 59.0711 80.0314 59.0711C80.2408 59.0711 80.4311 59.1089 80.6053 59.1845C80.778 59.2599 80.9098 59.3564 80.9991 59.4736C81.0869 59.591 81.1499 59.7241 81.1836 59.8728C81.2187 60.0217 81.2363 60.2347 81.2363 60.5121V62.7449H80.2876V60.9113C80.2876 60.5234 80.2671 60.2726 80.2276 60.1587C80.1866 60.0447 80.1207 59.9563 80.0299 59.893C79.9392 59.83 79.8294 59.7984 79.7005 59.7984C79.5366 59.7984 79.3887 59.8436 79.2584 59.9337C79.1281 60.0239 79.0373 60.1435 78.989 60.2924C78.9407 60.4411 78.9173 60.7163 78.9173 61.1177V62.7449H77.9686ZM33.9226 61.987C34.0368 61.9014 34.1129 61.7965 34.148 61.6724C34.1729 61.5914 34.1861 61.4369 34.1861 61.2091V61.0195C34.0646 61.0602 33.8713 61.1086 33.6078 61.1651C33.3458 61.2214 33.173 61.2767 33.0925 61.3308C32.968 61.4189 32.9065 61.5304 32.9065 61.6658C32.9065 61.7988 32.9563 61.9138 33.0544 62.0108C33.154 62.1078 33.2799 62.1562 33.4321 62.1562C33.6034 62.1562 33.7674 62.0998 33.9226 61.987ZM59.4124 61.7046C59.5719 61.523 59.6525 61.2541 59.6525 60.8978C59.6525 60.5258 59.5749 60.2494 59.4226 60.0689C59.2689 59.8885 59.0756 59.7984 58.8414 59.7984C58.6145 59.7984 58.4271 59.8869 58.2792 60.064C58.1314 60.241 58.0582 60.5111 58.0582 60.8742C58.0582 61.2553 58.1314 61.5343 58.2792 61.7114C58.4271 61.8884 58.6086 61.9769 58.8253 61.9769C59.0566 61.9769 59.2528 61.8861 59.4124 61.7046ZM71.3294 61.7046C71.4889 61.523 71.5695 61.2541 71.5695 60.8978C71.5695 60.5258 71.4919 60.2494 71.3396 60.0689C71.1859 59.8885 70.9926 59.7984 70.7584 59.7984C70.5315 59.7984 70.3441 59.8869 70.1962 60.064C70.0498 60.241 69.9752 60.5111 69.9752 60.8742C69.9752 61.2553 70.0498 61.5343 70.1962 61.7114C70.3441 61.8884 70.5256 61.9769 70.7423 61.9769C70.9736 61.9769 71.1698 61.8861 71.3294 61.7046ZM66.5069 60.7828L65.8247 58.9426L65.1571 60.7828H66.5069ZM45.5424 60.0132C45.4077 59.87 45.2437 59.7984 45.049 59.7984C44.8426 59.7984 44.6713 59.874 44.5366 60.0251C44.4019 60.1762 44.3346 60.3814 44.3375 60.6408H45.7547C45.7488 60.3656 45.6771 60.1564 45.5424 60.0132ZM75.7023 60.0132C75.5677 59.87 75.4022 59.7984 75.209 59.7984C75.0026 59.7984 74.8313 59.874 74.6966 60.0251C74.5604 60.1762 74.4945 60.3814 74.4975 60.6408H75.9146C75.9088 60.3656 75.837 60.1564 75.7023 60.0132ZM50.4629 58.6652V57.7856H51.4116V58.6652H50.4629Z" fill="white"/>
<path fill-rule="evenodd" clip-rule="evenodd" d="M23.002 43.888V44.856H90.0241V43.888H23.002Z" fill="#00CEA6"/>
<path fill-rule="evenodd" clip-rule="evenodd" d="M77.21 83.1782L77.9127 78.2491L82.4584 75.3885L81.602 80.9557L77.21 83.1782Z" fill="white"/>
<path fill-rule="evenodd" clip-rule="evenodd" d="M85.9275 78.1938L85.459 73.4111L89.0663 69.6851L89.5362 75.1015L85.9275 78.1938Z" fill="white"/>
<path fill-rule="evenodd" clip-rule="evenodd" d="M93.1349 71.4973L91.6006 67.1383L94.429 62.519L96.0468 67.3446L93.1349 71.4973Z" fill="white"/>
<path fill-rule="evenodd" clip-rule="evenodd" d="M98.5142 63.8509L96.0986 59.6673L98.1438 54.7869L100.662 59.2891L98.5142 63.8509Z" fill="white"/>
<path fill-rule="evenodd" clip-rule="evenodd" d="M102.717 55.7414L99.5889 52.1201L100.703 47.4102L103.651 50.6898L102.717 55.7414Z" fill="white"/>
<path fill-rule="evenodd" clip-rule="evenodd" d="M104.72 46.8777L101.141 44.1256L101.523 39.3667L104.806 41.9847L104.72 46.8777Z" fill="white"/>
<path fill-rule="evenodd" clip-rule="evenodd" d="M104.813 37.8073L101.281 35.8004L100.85 30.6723L104.388 32.9319L104.813 37.8073Z" fill="white"/>
<path fill-rule="evenodd" clip-rule="evenodd" d="M102.968 27.8554L99.8574 26.728L98.1006 21.7868L101.535 23.2343L102.968 27.8554Z" fill="white"/>
<path fill-rule="evenodd" clip-rule="evenodd" d="M102.967 20.1137L99.6777 16.1763L100.199 10.8952L103.549 15.0211L102.967 20.1137Z" fill="white"/>
<path fill-rule="evenodd" clip-rule="evenodd" d="M107.116 26.7462L105.571 22.0473L107.836 19.1593L109.517 23.5259L107.116 26.7462Z" fill="white"/>
<path fill-rule="evenodd" clip-rule="evenodd" d="M109.11 37.0672L108.548 32.1523L111.35 29.7834L112.113 34.4009L109.11 37.0672Z" fill="white"/>
<path fill-rule="evenodd" clip-rule="evenodd" d="M108.942 46.8704L108.964 42.0073L112.5 39.5209L112.384 44.4278L108.942 46.8704Z" fill="white"/>
<path fill-rule="evenodd" clip-rule="evenodd" d="M106.738 56.5423L107.668 51.5133L111.621 49.6429L110.742 54.616L106.738 56.5423Z" fill="white"/>
<path fill-rule="evenodd" clip-rule="evenodd" d="M102.508 65.5744L104.594 61.0194L109.453 60.0484L107.444 64.68L102.508 65.5744Z" fill="white"/>
<path fill-rule="evenodd" clip-rule="evenodd" d="M96.5557 73.9323L99.3285 69.8478L104.678 69.8634L102.128 73.8773L96.5557 73.9323Z" fill="white"/>
<path fill-rule="evenodd" clip-rule="evenodd" d="M88.8057 81.1098L92.3632 77.677L97.8459 78.8421L94.647 82.232L88.8057 81.1098Z" fill="white"/>
<path fill-rule="evenodd" clip-rule="evenodd" d="M78.9258 87.1966L83.5374 84.8311L88.3745 87.4053L84.5051 90L78.9258 87.1966Z" fill="white"/>
<path fill-rule="evenodd" clip-rule="evenodd" d="M102.822 23.0107C112.687 48.773 99.7637 77.6346 72.7426 86.2017C72.0135 86.5576 72.22 87.7678 73.2345 87.5352C102.356 77.7182 114.092 46.4405 104.097 22.5577C103.582 21.8086 102.703 22.1661 102.822 23.0107Z" fill="#7199AA"/>
<path fill-rule="evenodd" clip-rule="evenodd" d="M65.3532 21.7473L54.502 10.8737L65.3532 -2.67029e-05L76.2044 10.8737L65.3532 21.7473ZM65.3532 18.4906L72.9543 10.8737L65.3532 3.25683L57.7521 10.8737L65.3532 18.4906Z" fill="#00CEA6"/>
<path fill-rule="evenodd" clip-rule="evenodd" d="M46.8981 21.7473L36.0469 10.8737L46.8981 -2.67029e-05L57.7507 10.8737L46.8981 21.7473ZM46.8981 18.4906L54.5006 10.8737L46.8981 3.25683L39.297 10.8737L46.8981 18.4906Z" fill="#00CEA6"/>
<path fill-rule="evenodd" clip-rule="evenodd" d="M49.6123 15.3773L51.517 17.2855L53.1684 15.6828L51.0397 13.551L49.6123 15.3773Z" fill="white"/>
<path fill-rule="evenodd" clip-rule="evenodd" d="M58.8867 6.17832L60.7914 8.08658L62.4413 6.4839L60.3141 4.35208L58.8867 6.17832Z" fill="white"/>
</g>
<defs>
<clipPath id="clip0_119_1719">
<rect width="112.5" height="90" fill="white"/>
</clipPath>
</defs>
</svg>
