<svg width="144" height="47" viewBox="0 0 144 47" fill="none" xmlns="http://www.w3.org/2000/svg">
<g clip-path="url(#clip0_204_2094)">
<path fill-rule="evenodd" clip-rule="evenodd" d="M20.033 6.7694C27.3199 6.7694 33.2339 12.7333 33.2339 20.0816C33.2339 27.43 27.3199 33.3939 20.033 33.3939C12.746 33.3939 6.83203 27.43 6.83203 20.0816C6.83203 12.7333 12.746 6.7694 20.033 6.7694Z" fill="#FF0011"/>
<path fill-rule="evenodd" clip-rule="evenodd" d="M2.64355 18.74C3.45494 11.3013 7.80254 5.07998 16.5133 2.9273L16.5423 0.304222C16.5595 -0.00457573 16.7215 -0.0592957 16.9793 0.0552311L23.5474 5.02908L17.0248 9.97917C16.7472 10.1514 16.5705 10.0814 16.4451 9.88755V7.73318C11.9053 9.21354 8.49909 12.3957 7.20314 18.7422L5.02472 15.7433L2.64355 18.74Z" fill="white"/>
<path fill-rule="evenodd" clip-rule="evenodd" d="M21.3853 2.57245C28.7619 3.39025 34.9312 7.7745 37.0659 16.5591L39.667 16.588C39.9728 16.6058 40.0271 16.7691 39.9139 17.0287L34.9817 23.6521L30.0725 17.0749C29.9018 16.795 29.9716 16.6168 30.1638 16.49H32.3002C30.8322 11.9123 27.6766 8.47693 21.3828 7.17006L24.3566 4.97327L21.3853 2.57245Z" fill="white"/>
<path fill-rule="evenodd" clip-rule="evenodd" d="M37.4239 21.423C36.613 28.8613 32.2654 35.0826 23.5546 37.2353L23.5256 39.8584C23.508 40.1676 23.3464 40.2219 23.0886 40.1078L16.5205 35.134L23.0427 30.1834C23.3204 30.0117 23.497 30.0812 23.6228 30.2751V32.4294C28.1622 30.9491 31.5688 27.7669 32.8648 21.4205L35.0432 24.4194L37.4239 21.423Z" fill="white"/>
<path fill-rule="evenodd" clip-rule="evenodd" d="M18.6817 37.5907C11.3052 36.7725 5.13583 32.3883 3.00115 23.6036L0.400004 23.5748C0.0942085 23.5574 0.0399486 23.3937 0.153097 23.1341L5.08536 16.5106L9.99407 23.0883C10.1648 23.3682 10.0954 23.5464 9.90321 23.6728H7.76685C9.23484 28.2509 12.3904 31.6858 18.6838 32.9931L15.7099 35.1895L18.6817 37.5907Z" fill="white"/>
<path d="M45.8076 28.1275V15.9647C45.8076 14.0029 46.5382 12.3491 48.0008 11.0045C49.4629 9.65942 51.1925 8.98711 53.1892 8.98711C55.1733 8.98711 56.8676 9.69505 58.2716 11.1114C59.6761 12.5277 60.3781 14.2367 60.3781 16.2375C60.3781 17.6407 60.1139 18.8394 59.5852 19.8336C59.0573 20.8275 58.2131 21.6949 57.0539 22.4355C55.7786 23.2542 54.4902 23.6631 53.1888 23.6635C52.0939 23.6631 50.9729 23.3708 49.8263 22.7863V19.0056C50.1872 19.4599 50.6667 19.8171 51.2661 20.0771C51.865 20.3367 52.4935 20.4669 53.1505 20.4669C54.2841 20.4669 55.2246 20.1289 55.972 19.4531C56.8221 18.6867 57.2474 17.6012 57.2474 16.198C57.2474 15.0808 56.8415 14.1255 56.0301 13.3328C55.2183 12.54 54.2454 12.1438 53.1122 12.1438C51.9525 12.1438 50.9666 12.5468 50.1552 13.3523C49.3434 14.1578 48.9375 15.1457 48.9375 16.3151V28.1275H45.8076ZM67.8955 28.1275V15.9647C67.8955 14.0029 68.6262 12.3491 70.0887 11.0045C71.5508 9.65942 73.2804 8.98711 75.2771 8.98711C77.2612 8.98711 78.9555 9.69505 80.3595 11.1114C81.764 12.5277 82.466 14.2367 82.466 16.2375C82.466 17.6407 82.2019 18.8394 81.6731 19.8336C81.1452 20.8275 80.3011 21.6949 79.1418 22.4355C77.8665 23.2542 76.5781 23.6631 75.2767 23.6635C74.1818 23.6631 73.0608 23.3708 71.9142 22.7863V19.0056C72.2751 19.4599 72.7546 19.8171 73.354 20.0771C73.953 20.3367 74.5814 20.4669 75.2384 20.4669C76.372 20.4669 77.3125 20.1289 78.06 19.4531C78.91 18.6867 79.3353 17.6012 79.3353 16.198C79.3353 15.0808 78.9294 14.1255 78.118 13.3328C77.3062 12.54 76.3333 12.1438 75.2001 12.1438C74.0405 12.1438 73.0545 12.5468 72.2431 13.3523C71.4313 14.1578 71.0254 15.1457 71.0254 16.3151V28.1275H67.8955ZM86.2962 21.8302C84.7765 20.3498 84.0169 18.5509 84.0169 16.4335C84.0169 14.2901 84.7542 12.4619 86.2294 10.9489C87.7045 9.43546 89.498 8.67873 91.6109 8.67873C93.7367 8.67873 95.595 9.47448 97.1858 11.0656C98.7771 12.6562 99.5725 14.5103 99.5725 16.6277C99.5725 16.861 99.5725 17.0884 99.5725 17.3098C99.5333 17.5041 99.5077 17.647 99.4951 17.7378H88.5941C88.3624 17.7378 88.2139 17.6407 88.1495 17.4455C88.0852 17.2508 88.0528 16.984 88.0528 16.646C88.0524 16.5034 88.0524 16.3995 88.0528 16.3342C88.0524 16.1654 88.0524 16.0352 88.0528 15.9444C88.0528 15.6975 88.0784 15.5126 88.1302 15.3887C88.1815 15.2653 88.3043 15.2038 88.4978 15.2038H96.1536C95.8697 14.165 95.3321 13.3535 94.5397 12.769C93.7468 12.1849 92.8029 11.8927 91.7076 11.8927C90.4962 11.8927 89.4429 12.3309 88.547 13.2076C87.6515 14.0844 87.204 15.1198 87.204 16.3151C87.204 16.5225 87.2103 16.6782 87.2233 16.7826C87.3651 18.0682 87.8997 19.0816 88.8271 19.8213C89.6516 20.4839 90.6304 20.8147 91.764 20.8147C92.4079 20.8147 93.0132 20.7011 93.5802 20.4741C94.1468 20.2463 94.6301 19.9053 95.0293 19.4506L97.2317 21.7509C96.4459 22.5568 95.6219 23.1417 94.7588 23.5057C93.8957 23.8696 92.8976 24.0516 91.764 24.0516C89.6385 24.0516 87.816 23.3114 86.2962 21.8302ZM130.212 21.8302C128.692 20.3498 127.933 18.5509 127.933 16.4335C127.933 14.2901 128.67 12.4619 130.145 10.9489C131.62 9.43546 133.414 8.67873 135.527 8.67873C137.653 8.67873 139.511 9.47448 141.102 11.0656C142.693 12.6562 143.488 14.5103 143.488 16.6277C143.488 16.861 143.488 17.0884 143.488 17.3098C143.449 17.5041 143.424 17.647 143.411 17.7378H132.51C132.278 17.7378 132.13 17.6407 132.065 17.4455C132.001 17.2508 131.969 16.984 131.969 16.646C131.968 16.5034 131.968 16.3995 131.969 16.3342C131.968 16.1654 131.968 16.0352 131.969 15.9444C131.969 15.6975 131.994 15.5126 132.046 15.3887C132.097 15.2653 132.22 15.2038 132.414 15.2038H140.069C139.786 14.165 139.248 13.3535 138.456 12.769C137.663 12.1849 136.719 11.8927 135.623 11.8927C134.412 11.8927 133.359 12.3309 132.463 13.2076C131.567 14.0844 131.12 15.1198 131.12 16.3151C131.12 16.5225 131.126 16.6782 131.139 16.7826C131.281 18.0682 131.816 19.0816 132.743 19.8213C133.567 20.4839 134.546 20.8147 135.68 20.8147C136.324 20.8147 136.929 20.7011 137.496 20.4741C138.063 20.2463 138.546 19.9053 138.945 19.4506L141.148 21.7509C140.362 22.5568 139.538 23.1417 138.675 23.5057C137.812 23.8696 136.813 24.0516 135.68 24.0516C133.554 24.0516 131.732 23.3114 130.212 21.8302ZM112.496 23.9719V15.3115C112.496 13.4261 113.17 11.8168 114.515 10.484C115.862 9.15126 117.481 8.48489 119.375 8.48489C121.23 8.48489 122.814 9.1538 124.128 10.4912C125.442 11.8291 126.099 13.4392 126.099 15.3225V23.9719H122.6V15.2055C122.6 14.3219 122.262 13.572 121.586 12.9552C120.91 12.3385 120.114 12.0301 119.199 12.0297C118.323 12.0301 117.566 12.3321 116.928 12.937C116.291 13.5419 115.972 14.2799 115.972 15.1516V23.9719H112.496ZM62.3138 23.9146V9.51223H65.5972V23.9146H62.3138ZM101.446 23.9146V4.43192H104.73V23.9146H101.446ZM106.819 23.9146V9.51223H110.102V23.9146H106.819ZM62.5464 7.9551C62.199 7.55214 62.0253 7.07791 62.0253 6.53242C62.0253 5.99966 62.196 5.54495 62.5368 5.16828C62.8779 4.79119 63.3641 4.60286 63.9946 4.60286C64.5612 4.60286 65.018 4.81071 65.3655 5.2264C65.6746 5.60349 65.8294 6.0582 65.829 6.59096C65.8294 7.11057 65.665 7.56825 65.3369 7.96485C65.0084 8.36103 64.5612 8.55912 63.9946 8.55912C63.3767 8.55912 62.8943 8.35764 62.5464 7.9551ZM107.051 7.9551C106.704 7.55214 106.53 7.07791 106.53 6.53242C106.53 5.99966 106.701 5.54495 107.042 5.16828C107.383 4.79119 107.869 4.60286 108.499 4.60286C109.066 4.60286 109.523 4.81071 109.87 5.2264C110.179 5.60349 110.334 6.0582 110.334 6.59096C110.334 7.11057 110.17 7.56825 109.842 7.96485C109.513 8.36103 109.066 8.55912 108.499 8.55912C107.882 8.55912 107.399 8.35764 107.051 7.9551Z" fill="white"/>
<path fill-rule="evenodd" clip-rule="evenodd" d="M83.7959 32.9295L99.5311 33.9747L98.1468 31.1603L107.477 29.6884L95.337 28.7612L96.0748 31.2129L83.7959 32.9295Z" fill="white"/>
<path d="M89.4287 39.0965C88.4314 38.4666 87.6423 37.5784 87.0614 36.4331C86.8204 35.958 86.629 35.4533 86.4881 34.9192L90.704 35.1996H90.7007C91.0157 35.6543 91.3981 36.0178 91.849 36.2885C92.4294 36.6388 93.0499 36.8136 93.709 36.8136C94.3858 36.8136 95.0188 36.6431 95.6081 36.302C95.94 36.1103 96.234 35.8706 96.4889 35.5843L97.2654 35.6357L96.9369 34.968C96.9629 34.9235 96.9886 34.8785 97.0138 34.8323C97.3609 34.1943 97.5333 33.4295 97.5333 32.5371C97.5333 32.3691 97.527 32.2049 97.5148 32.0459L97.5127 32.0463L97.5333 32.0429V37.6797C97.0656 38.3618 96.4191 38.9255 95.5955 39.3722C94.7719 39.8184 93.8217 40.0411 92.7466 40.0411C91.5322 40.0411 90.4264 39.7259 89.4287 39.0965ZM134.11 39.3853C133.303 38.9476 132.648 38.397 132.145 37.7319V27.3673C132.614 26.703 133.26 26.1478 134.084 25.702C134.908 25.2553 135.849 25.033 136.907 25.033C138.139 25.033 139.253 25.3389 140.25 25.9514C141.248 26.563 142.037 27.4334 142.617 28.5617C143.199 29.6904 143.49 30.9977 143.49 32.4845C143.49 33.9716 143.199 35.287 142.617 36.4331C142.037 37.5784 141.248 38.4666 140.25 39.0965C139.253 39.7259 138.139 40.0411 136.907 40.0411C135.849 40.0411 134.916 39.8222 134.11 39.3853ZM103.135 39.8048V31.1589L106.566 30.6177L103.135 30.3556L103.135 25.2697H106.778V27.0271C107.246 26.4141 107.849 25.9336 108.587 25.5836C109.323 25.2341 110.135 25.0593 111.019 25.0593C112.147 25.0593 113.153 25.2994 114.037 25.7813C114.922 26.2614 115.607 26.9482 116.093 27.8398C116.562 27.0012 117.242 26.3272 118.136 25.8203C119.029 25.313 119.996 25.0593 121.036 25.0593C122.806 25.0593 124.233 25.6057 125.316 26.6983C126.4 27.7923 126.942 29.318 126.942 31.2777V39.8048H123.3V31.7761C123.3 30.6389 123.013 29.7685 122.442 29.1657C121.869 28.5617 121.088 28.2606 120.099 28.2606C119.11 28.2606 118.326 28.5617 117.745 29.1657C117.164 29.7685 116.873 30.6389 116.873 31.7761V39.8048H113.231V31.7761C113.231 30.6389 112.945 29.7685 112.373 29.1657C111.8 28.5617 111.019 28.2606 110.031 28.2606C109.024 28.2606 108.231 28.5617 107.649 29.1657C107.068 29.7685 106.778 30.6389 106.778 31.7761V39.8048H103.135ZM137.83 36.2885C138.411 35.9389 138.88 35.4414 139.235 34.7932C139.591 34.146 139.769 33.3769 139.769 32.4845C139.769 31.6098 139.591 30.8544 139.235 30.2147C138.88 29.5763 138.411 29.0902 137.83 28.7585C137.25 28.4264 136.621 28.2606 135.944 28.2606C135.285 28.2606 134.665 28.4307 134.084 28.7717C133.503 29.1131 133.034 29.6065 132.679 30.2537C132.323 30.9019 132.145 31.6624 132.145 32.5371C132.145 33.4113 132.323 34.1723 132.679 34.82C133.034 35.4664 133.503 35.961 134.084 36.302C134.665 36.6431 135.285 36.8136 135.944 36.8136C136.621 36.8136 137.25 36.6388 137.83 36.2885ZM86.1895 32.4845C86.1895 31.0156 86.4805 29.7117 87.0614 28.5757C87.6423 27.4381 88.4314 26.563 89.4287 25.9514C90.4264 25.3389 91.5402 25.033 92.7718 25.033C93.8478 25.033 94.7887 25.2519 95.5955 25.6884C96.4018 26.1257 97.0479 26.6776 97.5333 27.3418L97.5329 29.9276L96.7867 29.8703C96.4708 29.4096 96.0775 29.044 95.6081 28.7717C95.0188 28.4307 94.3858 28.2606 93.709 28.2606C93.0326 28.2606 92.408 28.4264 91.8355 28.7585C91.263 29.0902 90.7999 29.5763 90.4437 30.2147C90.0887 30.8544 89.9103 31.6098 89.9103 32.4845C89.9103 32.6134 89.9141 32.7398 89.9217 32.8637L86.2294 33.3795L86.226 33.3799C86.2017 33.0889 86.1895 32.7903 86.1895 32.4845Z" fill="#FF0011"/>
<path fill-rule="evenodd" clip-rule="evenodd" d="M128.559 46.7308L128.559 24.9971H132.263V46.7308H128.559Z" fill="#FF0011"/>
<path fill-rule="evenodd" clip-rule="evenodd" d="M97.5356 39.6747V32.0425L101.236 31.4589V39.6747H97.5356ZM101.236 30.2105L97.5352 29.928L97.5356 24.997H101.236V30.2105Z" fill="#FF0011"/>
<path fill-rule="evenodd" clip-rule="evenodd" d="M81.1719 34.0344L96.5016 35.0066L95.1539 32.3908L104.244 31.0232L92.4161 30.1613L93.1349 32.4404L81.1719 34.0344Z" fill="black"/>
<path fill-rule="evenodd" clip-rule="evenodd" d="M21.4952 18.6501H28.3464L15.1328 29.5514L21.4952 18.6501Z" fill="white"/>
<path fill-rule="evenodd" clip-rule="evenodd" d="M18.7691 20.8715H11.918L25.1315 9.97029L18.7691 20.8715Z" fill="white"/>
</g>
<defs>
<clipPath id="clip0_204_2094">
<rect width="143.654" height="46.7308" fill="white"/>
</clipPath>
</defs>
</svg>
